<svg width="125" height="37" viewBox="0 0 125 37" fill="none" xmlns="http://www.w3.org/2000/svg">
<rect width="125" height="37" rx="5" fill="#201D24"/>
<path d="M84.9229 17.6685V20.0526H83.427V21.6161H84.9229V26.9284C84.9229 28.7424 85.7443 29.468 87.8109 29.468C88.174 29.468 88.5199 29.4248 88.8225 29.373V27.8268C88.5631 27.8527 88.3988 27.87 88.1135 27.87C87.1883 27.87 86.7819 27.4381 86.7819 26.4533V21.6161H88.8225V20.0526H86.7819V17.6685H84.9229Z" fill="#EFEFEF"/>
<path d="M94.0869 29.5976C96.8366 29.5976 98.5227 27.7577 98.5227 24.7085C98.5227 21.6765 96.8279 19.828 94.0869 19.828C91.3373 19.828 89.6426 21.6765 89.6426 24.7085C89.6426 27.7577 91.3287 29.5976 94.0869 29.5976ZM94.0869 27.9477C92.47 27.9477 91.5621 26.7643 91.5621 24.7085C91.5621 22.6699 92.47 21.4779 94.0869 21.4779C95.6952 21.4779 96.6118 22.6699 96.6118 24.7085C96.6118 26.7557 95.6952 27.9477 94.0869 27.9477Z" fill="#EFEFEF"/>
<path d="M99.9653 29.4162H101.824V23.8619C101.824 22.5403 102.819 21.6506 104.228 21.6506C104.557 21.6506 105.11 21.7111 105.266 21.7629V19.9317C105.067 19.8798 104.712 19.8539 104.436 19.8539C103.208 19.8539 102.162 20.5277 101.893 21.4519H101.755V20.0094H99.9653V29.4162Z" fill="#EFEFEF"/>
<path d="M109.882 21.4088C111.256 21.4088 112.156 22.3676 112.199 23.8447H107.443C107.547 22.3762 108.507 21.4088 109.882 21.4088ZM112.19 26.8766C111.844 27.6108 111.075 28.0168 109.951 28.0168C108.464 28.0168 107.504 26.9716 107.443 25.3218V25.2181H114.093V24.5703C114.093 21.6161 112.51 19.828 109.89 19.828C107.236 19.828 105.55 21.737 105.55 24.743C105.55 27.749 107.201 29.5976 109.899 29.5976C112.052 29.5976 113.556 28.561 113.98 26.8766H112.19Z" fill="#EFEFEF"/>
<path d="M72.7316 25.9424C72.875 28.2523 74.8019 29.7295 77.6697 29.7295C80.7347 29.7295 82.6526 28.1807 82.6526 25.7096C82.6526 23.7668 81.5592 22.6925 78.9065 22.0747L77.4815 21.7255C75.7966 21.3316 75.1155 20.8034 75.1155 19.8812C75.1155 18.7173 76.173 17.9563 77.7593 17.9563C79.2649 17.9563 80.3045 18.6994 80.4927 19.8902H82.4464C82.3299 17.7146 80.4121 16.1836 77.7862 16.1836C74.9632 16.1836 73.0812 17.7146 73.0812 20.0155C73.0812 21.9135 74.1476 23.0416 76.4867 23.5878L78.1536 23.9906C79.8654 24.3935 80.6182 24.9844 80.6182 25.9693C80.6182 27.1152 79.4352 27.9479 77.8221 27.9479C76.0924 27.9479 74.8915 27.169 74.7212 25.9424H72.7316Z" fill="#EFEFEF"/>
<path d="M53.474 19.8539C52.1943 19.8539 51.0875 20.4931 50.5168 21.5642H50.3785V20.0094H48.5886V32.5431H50.4477V27.9909H50.5947C51.0875 28.9843 52.1511 29.5717 53.4913 29.5717C55.8691 29.5717 57.3823 27.6972 57.3823 24.7085C57.3823 21.7197 55.8691 19.8539 53.474 19.8539ZM52.9466 27.9045C51.3902 27.9045 50.4131 26.6779 50.4131 24.7171C50.4131 22.7476 51.3902 21.521 52.9552 21.521C54.5289 21.521 55.4714 22.7217 55.4714 24.7085C55.4714 26.7038 54.5289 27.9045 52.9466 27.9045Z" fill="#EFEFEF"/>
<path d="M63.8873 19.8539C62.6076 19.8539 61.5009 20.4931 60.9302 21.5642H60.7918V20.0094H59.002V32.5431H60.861V27.9909H61.008C61.5009 28.9843 62.5644 29.5717 63.9046 29.5717C66.2824 29.5717 67.7956 27.6972 67.7956 24.7085C67.7956 21.7197 66.2824 19.8539 63.8873 19.8539ZM63.3599 27.9045C61.8035 27.9045 60.8264 26.6779 60.8264 24.7171C60.8264 22.7476 61.8035 21.521 63.3685 21.521C64.9422 21.521 65.8847 22.7217 65.8847 24.7085C65.8847 26.7038 64.9422 27.9045 63.3599 27.9045Z" fill="#EFEFEF"/>
<path d="M45.2532 29.4162H47.3862L42.717 16.4969H40.5571L35.8879 29.4162H37.9492L39.1411 25.9872H44.0702L45.2532 29.4162ZM41.534 18.8426H41.6864L43.5594 24.304H39.652L41.534 18.8426Z" fill="#EFEFEF"/>
<path d="M37.1365 6.75221V12.9845H39.3889C41.248 12.9845 42.3245 11.84 42.3245 9.84893C42.3245 7.8881 41.2393 6.75221 39.3889 6.75221H37.1365ZM38.1049 7.63328H39.2808C40.5735 7.63328 41.3387 8.45389 41.3387 9.86189C41.3387 11.2915 40.5865 12.1034 39.2808 12.1034H38.1049V7.63328Z" fill="#EFEFEF"/>
<path d="M45.6214 13.0752C46.9962 13.0752 47.8393 12.1553 47.8393 10.6307C47.8393 9.1147 46.9919 8.19043 45.6214 8.19043C44.2466 8.19043 43.3992 9.1147 43.3992 10.6307C43.3992 12.1553 44.2423 13.0752 45.6214 13.0752ZM45.6214 12.2503C44.813 12.2503 44.359 11.6586 44.359 10.6307C44.359 9.61138 44.813 9.01536 45.6214 9.01536C46.4256 9.01536 46.8838 9.61138 46.8838 10.6307C46.8838 11.6543 46.4256 12.2503 45.6214 12.2503Z" fill="#EFEFEF"/>
<path d="M55.0186 8.28113H54.0891L53.2504 11.8702H53.1769L52.2084 8.28113H51.3178L50.3494 11.8702H50.2802L49.4372 8.28113H48.4947L49.7917 12.9845H50.7472L51.7156 9.52068H51.7891L52.7618 12.9845H53.7259L55.0186 8.28113Z" fill="#EFEFEF"/>
<path d="M56.0891 12.9845H57.0186V10.2333C57.0186 9.49909 57.4552 9.04128 58.1426 9.04128C58.83 9.04128 59.1586 9.41703 59.1586 10.1729V12.9845H60.0881V9.93963C60.0881 8.82101 59.5088 8.19043 58.4582 8.19043C57.7492 8.19043 57.2823 8.50572 57.0532 9.02832H56.984V8.28113H56.0891V12.9845Z" fill="#EFEFEF"/>
<path d="M61.552 12.9845H62.4815V6.44556H61.552V12.9845Z" fill="#EFEFEF"/>
<path d="M65.9774 13.0752C67.3522 13.0752 68.1952 12.1553 68.1952 10.6307C68.1952 9.1147 67.3479 8.19043 65.9774 8.19043C64.6026 8.19043 63.7552 9.1147 63.7552 10.6307C63.7552 12.1553 64.5982 13.0752 65.9774 13.0752ZM65.9774 12.2503C65.1689 12.2503 64.715 11.6586 64.715 10.6307C64.715 9.61138 65.1689 9.01536 65.9774 9.01536C66.7815 9.01536 67.2398 9.61138 67.2398 10.6307C67.2398 11.6543 66.7815 12.2503 65.9774 12.2503Z" fill="#EFEFEF"/>
<path d="M70.9648 12.2805C70.4589 12.2805 70.0914 12.0343 70.0914 11.6111C70.0914 11.1965 70.3854 10.9762 71.0339 10.933L72.1839 10.8596V11.2526C72.1839 11.8357 71.6651 12.2805 70.9648 12.2805ZM70.727 13.0623C71.3452 13.0623 71.8597 12.7945 72.1407 12.3237H72.2142V12.9845H73.1091V9.77119C73.1091 8.77782 72.4433 8.19043 71.2631 8.19043C70.1952 8.19043 69.4343 8.70871 69.3392 9.51637H70.2384C70.3422 9.1838 70.701 8.99377 71.2198 8.99377C71.8554 8.99377 72.1839 9.2745 72.1839 9.77119V10.1772L70.9086 10.2506C69.7888 10.3197 69.1576 10.8077 69.1576 11.6543C69.1576 12.5138 69.8191 13.0623 70.727 13.0623Z" fill="#EFEFEF"/>
<path d="M76.2634 13.0623C76.9119 13.0623 77.461 12.7556 77.742 12.2417H77.8155V12.9845H78.7061V6.44556H77.7766V9.02832H77.7074C77.4523 8.51004 76.9076 8.20339 76.2634 8.20339C75.0745 8.20339 74.3093 9.14493 74.3093 10.6307C74.3093 12.1207 75.0659 13.0623 76.2634 13.0623ZM76.5271 9.03696C77.3053 9.03696 77.7939 9.65457 77.7939 10.635C77.7939 11.6197 77.3097 12.2287 76.5271 12.2287C75.7403 12.2287 75.2691 11.6284 75.2691 10.6307C75.2691 9.64162 75.7446 9.03696 76.5271 9.03696Z" fill="#EFEFEF"/>
<path d="M84.7337 13.0752C86.1085 13.0752 86.9515 12.1553 86.9515 10.6307C86.9515 9.1147 86.1042 8.19043 84.7337 8.19043C83.3589 8.19043 82.5115 9.1147 82.5115 10.6307C82.5115 12.1553 83.3545 13.0752 84.7337 13.0752ZM84.7337 12.2503C83.9252 12.2503 83.4713 11.6586 83.4713 10.6307C83.4713 9.61138 83.9252 9.01536 84.7337 9.01536C85.5378 9.01536 85.9961 9.61138 85.9961 10.6307C85.9961 11.6543 85.5378 12.2503 84.7337 12.2503Z" fill="#EFEFEF"/>
<path d="M88.182 12.9845H89.1115V10.2333C89.1115 9.49909 89.5481 9.04128 90.2355 9.04128C90.9229 9.04128 91.2515 9.41703 91.2515 10.1729V12.9845H92.181V9.93963C92.181 8.82101 91.6017 8.19043 90.5511 8.19043C89.8421 8.19043 89.3752 8.50572 89.1461 9.02832H89.0769V8.28113H88.182V12.9845Z" fill="#EFEFEF"/>
<path d="M96.462 7.11068V8.30273H95.7141V9.08447H96.462V11.7407C96.462 12.6476 96.8727 13.0104 97.906 13.0104C98.0876 13.0104 98.2605 12.9888 98.4118 12.9629V12.1898C98.2821 12.2028 98.2 12.2114 98.0573 12.2114C97.5947 12.2114 97.3915 11.9955 97.3915 11.5031V9.08447H98.4118V8.30273H97.3915V7.11068H96.462Z" fill="#EFEFEF"/>
<path d="M99.6595 12.9845H100.589V10.2376C100.589 9.525 101.013 9.04559 101.774 9.04559C102.431 9.04559 102.781 9.42567 102.781 10.1772V12.9845H103.71V9.94827C103.71 8.82964 103.092 8.19475 102.089 8.19475C101.38 8.19475 100.883 8.51004 100.654 9.03696H100.58V6.44556H99.6595V12.9845Z" fill="#EFEFEF"/>
<path d="M107.064 8.98081C107.751 8.98081 108.201 9.46022 108.222 10.1988H105.844C105.896 9.46454 106.376 8.98081 107.064 8.98081ZM108.218 11.7147C108.045 12.0819 107.66 12.2848 107.098 12.2848C106.355 12.2848 105.875 11.7622 105.844 10.9373V10.8855H109.169V10.5616C109.169 9.08447 108.378 8.19043 107.068 8.19043C105.741 8.19043 104.898 9.14493 104.898 10.6479C104.898 12.151 105.723 13.0752 107.072 13.0752C108.149 13.0752 108.901 12.5569 109.113 11.7147H108.218Z" fill="#EFEFEF"/>
<path d="M25.8012 18.813C25.8238 17.0637 26.7641 15.4085 28.2559 14.4923C27.3148 13.1495 25.7385 12.2982 24.0985 12.2469C22.3493 12.0635 20.6535 13.2926 19.7621 13.2926C18.8535 13.2926 17.4811 12.2652 16.0033 12.2955C14.077 12.3577 12.2812 13.4518 11.344 15.1342C9.3294 18.6187 10.8321 23.7396 12.7619 26.5562C13.7274 27.9354 14.8558 29.476 16.3324 29.4214C17.7772 29.3615 18.3168 28.5009 20.0609 28.5009C21.7888 28.5009 22.295 29.4214 23.8015 29.3866C25.3519 29.3615 26.3287 28.0013 27.2604 26.609C27.9541 25.6263 28.4879 24.5402 28.8421 23.3909C27.0201 22.6211 25.8033 20.7893 25.8012 18.813Z" fill="#EFEFEF"/>
<path d="M22.9557 10.3946C23.8011 9.38085 24.2175 8.0778 24.1167 6.76221C22.8252 6.89772 21.6322 7.51435 20.7754 8.48924C19.9376 9.44176 19.5017 10.7219 19.5841 11.9872C20.876 12.0005 22.1461 11.4006 22.9557 10.3946Z" fill="#EFEFEF"/>
</svg>
