<svg width="16" height="15" viewBox="0 0 16 15" fill="none" xmlns="http://www.w3.org/2000/svg">
<path d="M8.54688 2.03125C8.19531 1.67969 8.23438 1.05469 8.58594 0.742188C8.97656 0.390625 9.5625 0.429688 9.91406 0.820312L15.1875 6.75781C15.5 7.10938 15.5 7.61719 15.1875 8.00781L9.91406 13.9453C9.5625 14.2969 8.97656 14.3359 8.58594 13.9844C8.39062 13.8281 8.3125 13.5547 8.3125 13.2812C8.3125 13.0859 8.39062 12.8516 8.54688 12.6562L13.2734 7.34375L8.54688 2.03125ZM7.72656 7.96875L2.41406 13.9453C2.0625 14.2969 1.47656 14.3359 1.08594 13.9844C0.890625 13.8281 0.8125 13.5547 0.8125 13.2812C0.8125 13.0859 0.890625 12.8516 1.04688 12.6562L5.77344 7.34375L1.04688 2.03125C0.695312 1.67969 0.734375 1.05469 1.125 0.742188C1.47656 0.390625 2.10156 0.429688 2.41406 0.78125L7.72656 6.71875C8.07812 7.10938 8.07812 7.61719 7.72656 7.96875Z" fill="#334266"/>
</svg>
