<svg width="19" height="12" viewBox="0 0 19 12" fill="none" xmlns="http://www.w3.org/2000/svg">
<path d="M5.5 3.75C5.0625 3.75 4.75 3.4375 4.75 3C4.75 2.59375 5.0625 2.25 5.5 2.25C5.90625 2.25 6.25 2.59375 6.25 3C6.25 3.4375 5.90625 3.75 5.5 3.75ZM11.3125 3.375L14.3125 7.5625C14.5312 7.875 14.5312 8.25 14.375 8.53125C14.1875 8.84375 13.875 9 13.5312 9H5.4375C5.09375 9 4.75 8.8125 4.59375 8.53125C4.4375 8.21875 4.46875 7.8125 4.6875 7.53125L6.65625 5.03125C7 4.5625 7.8125 4.5625 8.15625 5.03125L8.375 5.3125L9.78125 3.375C10.125 2.875 10.9688 2.90625 11.3125 3.375ZM5.5625 8H13.4062L10.5 3.96875L8.8125 6.4375C8.5625 6.78125 8.125 6.625 8 6.4375L7.375 5.65625L5.5625 8ZM16.5 0C17.5938 0 18.5 0.90625 18.5 2V10C18.5 11.125 17.5938 12 16.5 12H2.5C1.375 12 0.5 11.125 0.5 10V2C0.5 0.90625 1.375 0 2.5 0H16.5ZM17.5 10V2C17.5 1.46875 17.0312 1 16.5 1H2.5C1.9375 1 1.5 1.46875 1.5 2V10C1.5 10.5625 1.9375 11 2.5 11H16.5C17.0312 11 17.5 10.5625 17.5 10Z" fill="#091D37"/>
</svg>
