<svg width="20" height="14" viewBox="0 0 20 14" fill="none" xmlns="http://www.w3.org/2000/svg">
<path d="M9.34375 10.375C9.15625 10.5625 8.8125 10.5625 8.625 10.375L6.625 8.375C6.4375 8.1875 6.4375 7.84375 6.625 7.65625C6.8125 7.46875 7.15625 7.46875 7.34375 7.65625L9 9.3125L12.625 5.65625C12.8125 5.46875 13.1562 5.46875 13.3438 5.65625C13.5312 5.84375 13.5312 6.1875 13.3438 6.375L9.34375 10.375ZM8.5 0C10.3438 0 12 0.9375 13 2.34375C13.4375 2.125 13.9375 2 14.5 2C16.4062 2 18 3.59375 18 5.5C18 5.84375 17.9375 6.15625 17.8438 6.46875C19.125 7.15625 20 8.46875 20 10C20 12.2188 18.1875 14 16 14H4.5C2 14 0 12 0 9.5C0 7.5625 1.25 5.875 3 5.28125C3.125 2.34375 5.53125 0 8.5 0ZM8.5 1C6.0625 1 4.09375 2.90625 4 5.3125C3.96875 5.71875 3.71875 6.0625 3.3125 6.21875C1.96875 6.6875 1 8 1 9.5C1 11.4375 2.5625 13 4.5 13H16C17.6562 13 19 11.6562 19 10C19 8.875 18.3438 7.875 17.375 7.375C16.9688 7.125 16.75 6.65625 16.875 6.1875C16.9375 5.96875 17 5.75 17 5.5C17 4.125 15.875 3 14.5 3C14.0938 3 13.75 3.09375 13.4062 3.25C12.9688 3.46875 12.4375 3.3125 12.1562 2.9375C11.3438 1.78125 10 1 8.5 1Z" fill="#AECF6D"/>
</svg>
