<svg width="12" height="11" viewBox="0 0 12 11" fill="none" xmlns="http://www.w3.org/2000/svg">
<path fill-rule="evenodd" clip-rule="evenodd" d="M1.86046 1.78859C1.86046 0.793568 2.67987 0 3.67442 0H10.186C11.1806 0 12 0.793568 12 1.78859V5.44186C12 6.43686 11.1806 7.23042 10.186 7.23042H10.1396V7.72515C10.1396 8.72015 9.32015 9.51377 8.3256 9.51377H5.18389L2.95665 10.8258C2.82723 10.902 2.66689 10.9031 2.53648 10.8286C2.40606 10.754 2.32558 10.6153 2.32558 10.4651V9.51377H1.81395C0.81941 9.51377 0 8.72015 0 7.72515V4.07191C0 3.07687 0.81941 2.2833 1.81395 2.2833H1.86046V1.78859ZM2.69767 2.2833H8.3256C9.32015 2.2833 10.1396 3.07687 10.1396 4.07191V6.39321H10.186C10.7327 6.39321 11.1628 5.96009 11.1628 5.44186V1.78859C11.1628 1.27036 10.7327 0.837209 10.186 0.837209H3.67442C3.1277 0.837209 2.69767 1.27036 2.69767 1.78859V2.2833ZM1.81395 3.12051C1.26724 3.12051 0.837209 3.55366 0.837209 4.07191V7.72515C0.837209 8.24339 1.26724 8.67656 1.81395 8.67656H2.74419C2.97537 8.67656 3.16279 8.86392 3.16279 9.09516V9.73267L4.8573 8.73444C4.92167 8.69654 4.99507 8.67656 5.06975 8.67656H8.3256C8.8723 8.67656 9.30234 8.24339 9.30234 7.72515V4.07191C9.30234 3.55366 8.8723 3.12051 8.3256 3.12051H1.81395ZM2.32558 4.98519C2.32558 4.75401 2.513 4.56659 2.74419 4.56659H5.45738C5.68856 4.56659 5.87598 4.75401 5.87598 4.98519C5.87598 5.21637 5.68856 5.4038 5.45738 5.4038H2.74419C2.513 5.4038 2.32558 5.21637 2.32558 4.98519ZM2.32558 6.58348C2.32558 6.3523 2.513 6.16487 2.74419 6.16487H7.39535C7.62653 6.16487 7.81395 6.3523 7.81395 6.58348C7.81395 6.81472 7.62653 7.00208 7.39535 7.00208H2.74419C2.513 7.00208 2.32558 6.81472 2.32558 6.58348Z" fill="#091D37"/>
</svg>
