<svg width="14" height="14" viewBox="0 0 14 14" fill="none" xmlns="http://www.w3.org/2000/svg">
<path d="M11.2499 13.4999H5.41656C5.11254 13.5352 4.80448 13.5013 4.51542 13.4007C4.22636 13.3002 3.96379 13.1355 3.74737 12.9191C3.53096 12.7027 3.36629 12.4401 3.26571 12.151C3.16513 11.862 3.13123 11.5539 3.16656 11.2499V5.41656C3.13123 5.11254 3.16513 4.80448 3.26571 4.51542C3.36629 4.22636 3.53096 3.96379 3.74737 3.74737C3.96379 3.53096 4.22636 3.36629 4.51542 3.26571C4.80448 3.16513 5.11254 3.13123 5.41656 3.16656H11.2499C11.5539 3.13123 11.862 3.16513 12.151 3.26571C12.4401 3.36629 12.7027 3.53096 12.9191 3.74737C13.1355 3.96379 13.3002 4.22636 13.4007 4.51542C13.5013 4.80448 13.5352 5.11254 13.4999 5.41656V11.2499C13.5352 11.5539 13.5013 11.862 13.4007 12.151C13.3002 12.4401 13.1355 12.7027 12.9191 12.9191C12.7027 13.1355 12.4401 13.3002 12.151 13.4007C11.862 13.5013 11.5539 13.5352 11.2499 13.4999ZM5.41656 4.16656C4.52856 4.16656 4.16656 4.52856 4.16656 5.41656V11.2499C4.16656 12.1379 4.52856 12.4999 5.41656 12.4999H11.2499C12.1379 12.4999 12.4999 12.1379 12.4999 11.2499V5.41656C12.4999 4.52856 12.1379 4.16656 11.2499 4.16656H5.41656ZM1.49989 8.99989V2.74989C1.49989 1.86189 1.86189 1.49989 2.74989 1.49989H8.99989C9.1325 1.49989 9.25968 1.44721 9.35345 1.35344C9.44721 1.25968 9.49989 1.1325 9.49989 0.999891C9.49989 0.867283 9.44721 0.740106 9.35345 0.646338C9.25968 0.55257 9.1325 0.499891 8.99989 0.499891H2.74989C2.44588 0.464565 2.13781 0.498462 1.84875 0.599045C1.55969 0.699627 1.29712 0.864289 1.08071 1.08071C0.864289 1.29712 0.699627 1.55969 0.599045 1.84875C0.498462 2.13781 0.464565 2.44588 0.499891 2.74989V8.99989C0.499891 9.1325 0.55257 9.25968 0.646338 9.35345C0.740106 9.44721 0.867283 9.49989 0.999891 9.49989C1.1325 9.49989 1.25968 9.44721 1.35344 9.35345C1.44721 9.25968 1.49989 9.1325 1.49989 8.99989Z" fill="#091D37"/>
</svg>
