<svg width="16" height="16" viewBox="0 0 16 16" fill="none" xmlns="http://www.w3.org/2000/svg">
<path d="M12.2499 14.4999H6.41656C6.11254 14.5352 5.80448 14.5013 5.51542 14.4007C5.22636 14.3002 4.96379 14.1355 4.74737 13.9191C4.53096 13.7027 4.36629 13.4401 4.26571 13.151C4.16513 12.862 4.13123 12.5539 4.16656 12.2499V6.41656C4.13123 6.11254 4.16513 5.80448 4.26571 5.51542C4.36629 5.22636 4.53096 4.96379 4.74737 4.74737C4.96379 4.53096 5.22636 4.36629 5.51542 4.26571C5.80448 4.16513 6.11254 4.13123 6.41656 4.16656H12.2499C12.5539 4.13123 12.862 4.16513 13.151 4.26571C13.4401 4.36629 13.7027 4.53096 13.9191 4.74737C14.1355 4.96379 14.3002 5.22636 14.4007 5.51542C14.5013 5.80448 14.5352 6.11254 14.4999 6.41656V12.2499C14.5352 12.5539 14.5013 12.862 14.4007 13.151C14.3002 13.4401 14.1355 13.7027 13.9191 13.9191C13.7027 14.1355 13.4401 14.3002 13.151 14.4007C12.862 14.5013 12.5539 14.5352 12.2499 14.4999ZM6.41656 5.16656C5.52856 5.16656 5.16656 5.52856 5.16656 6.41656V12.2499C5.16656 13.1379 5.52856 13.4999 6.41656 13.4999H12.2499C13.1379 13.4999 13.4999 13.1379 13.4999 12.2499V6.41656C13.4999 5.52856 13.1379 5.16656 12.2499 5.16656H6.41656ZM2.49989 9.99989V3.74989C2.49989 2.86189 2.86189 2.49989 3.74989 2.49989H9.99989C10.1325 2.49989 10.2597 2.44721 10.3534 2.35344C10.4472 2.25968 10.4999 2.1325 10.4999 1.99989C10.4999 1.86728 10.4472 1.74011 10.3534 1.64634C10.2597 1.55257 10.1325 1.49989 9.99989 1.49989H3.74989C3.44588 1.46457 3.13781 1.49846 2.84875 1.59904C2.55969 1.69963 2.29712 1.86429 2.08071 2.08071C1.86429 2.29712 1.69963 2.55969 1.59904 2.84875C1.49846 3.13781 1.46457 3.44588 1.49989 3.74989V9.99989C1.49989 10.1325 1.55257 10.2597 1.64634 10.3534C1.74011 10.4472 1.86728 10.4999 1.99989 10.4999C2.1325 10.4999 2.25968 10.4472 2.35344 10.3534C2.44721 10.2597 2.49989 10.1325 2.49989 9.99989Z" fill="#091D37"/>
</svg>
