<svg width="18" height="21" viewBox="0 0 18 21" fill="none" xmlns="http://www.w3.org/2000/svg">
<path d="M17.75 14.25C17.75 15.0703 17.2031 15.7734 16.5 16.0469V18.625H16.8125C17.3203 18.625 17.75 19.0547 17.75 19.5625C17.75 20.1094 17.3203 20.5 16.8125 20.5H3.375C1.61719 20.5 0.25 19.1328 0.25 17.375V3.625C0.25 1.90625 1.61719 0.5 3.375 0.5H15.875C16.8906 0.5 17.75 1.35938 17.75 2.375V14.25ZM14.625 18.625V16.125H3.375C2.67188 16.125 2.125 16.7109 2.125 17.375C2.125 18.0781 2.67188 18.625 3.375 18.625H14.625ZM15.875 14.25V2.375H3.375C2.67188 2.375 2.125 2.96094 2.125 3.625V14.5234C2.47656 14.3672 2.90625 14.25 3.375 14.25H15.875ZM6.5 8.625C6.14844 8.625 5.875 8.35156 5.875 8V6.75C5.875 6.4375 6.14844 6.125 6.5 6.125H8.375V4.25C8.375 3.9375 8.64844 3.66406 9 3.66406H10.25C10.5625 3.66406 10.875 3.9375 10.875 4.25V6.125L12.75 6.16406C13.0625 6.16406 13.375 6.4375 13.375 6.75V8C13.375 8.35156 13.0625 8.625 12.75 8.625H10.875V12.375C10.875 12.7266 10.5625 13 10.25 13H9C8.64844 13 8.375 12.7266 8.375 12.375V8.625H6.5Z" fill="#334266"/>
</svg>
