<svg width="24" height="24" viewBox="0 0 24 24" fill="none" xmlns="http://www.w3.org/2000/svg">
<g id="ic/fonts">
<path id="Vector" d="M6.04562 17.5145H5.05471V16.9824V15.9824V14.4824V10.9824V7.48242V5.98242V4.98242L5.05469 3.98242H8.55469H10.0547H11.0547H11.5547H11.9236V4.98242H11.5547H10.5547H9.05469H7.55469H6.55469H6.05469L6.04562 5.56447V10.4415L6.05471 10.9824H5.99562H6.49562H6.99562H7.49562H8.49562H9.99562H10.9956H11.5696V11.9824H8.80762H6.04462V17.5145H6.04562ZM11.3586 21.9985C10.9396 21.9985 10.5596 21.9345 10.2196 21.8075V20.5215C10.5547 20.9824 10.7647 20.9824 11.0547 20.9824C11.5177 20.9824 12.0576 20.5335 12.3066 20.1575C12.5566 19.7805 12.7566 19.2425 12.9086 18.5445L14.9776 8.68147H13.2176L13.3376 8.07047L15.2146 7.46847L15.4246 6.55747C15.7036 5.34247 16.0896 4.48547 16.5816 3.98747C17.0796 3.48247 17.8146 3.23047 18.7876 3.23047C19.0306 3.23047 19.3276 3.26647 19.6806 3.34047C20.0326 3.40647 20.3066 3.48247 20.5006 3.56747L20.1086 4.74347C19.6466 4.56747 19.2306 4.47947 18.8606 4.47947C18.3306 4.47947 17.9246 4.62847 17.6386 4.92547C17.3586 5.21747 17.1316 5.75547 16.9556 6.53947L16.7276 7.52347H18.8956L18.6676 8.68147H16.5076L14.3926 18.6885C14.1566 19.8375 13.7916 20.6755 13.2996 21.2045C12.8076 21.7335 12.1596 21.9975 11.3576 21.9975L11.3586 21.9985Z" fill="#091D37"/>
</g>
</svg>
