<svg width="19" height="14" viewBox="0 0 19 14" fill="none" xmlns="http://www.w3.org/2000/svg">
<path d="M16.5 0C17.5938 0 18.5 0.90625 18.5 2V12C18.5 13.125 17.5938 14 16.5 14H2.5C1.375 14 0.5 13.125 0.5 12V2C0.5 0.90625 1.375 0 2.5 0H16.5ZM17.5 12V2C17.5 1.46875 17.0312 1 16.5 1H2.5C1.9375 1 1.5 1.46875 1.5 2V12C1.5 12.5625 1.9375 13 2.5 13H16.5C17.0312 13 17.5 12.5625 17.5 12ZM15 4C15.25 4 15.5 4.25 15.5 4.5C15.5 4.78125 15.25 5 15 5H12.5V6.5H14.25C14.5 6.5 14.75 6.75 14.75 7C14.75 7.28125 14.5 7.5 14.25 7.5H12.5V9.5C12.5 9.78125 12.25 10 12 10C11.7188 10 11.5 9.78125 11.5 9.5V4.5C11.5 4.25 11.7188 4 12 4H15ZM10 4C10.25 4 10.5 4.25 10.5 4.5V9.5C10.5 9.78125 10.25 10 10 10C9.71875 10 9.5 9.78125 9.5 9.5V4.5C9.5 4.25 9.71875 4 10 4ZM8 6.5C8.25 6.5 8.5 6.75 8.5 7V8.78125C8.5 8.90625 8.4375 9.03125 8.34375 9.125C7.78125 9.6875 6.96875 10 6.125 10C5.28125 10 4.46875 9.6875 3.90625 9.125C2.75 7.96875 2.75 6.0625 3.90625 4.90625C5.09375 3.71875 6.9375 3.71875 8.125 4.90625C8.3125 5.09375 8.3125 5.40625 8.125 5.59375C7.9375 5.78125 7.59375 5.78125 7.40625 5.59375C6.625 4.8125 5.40625 4.8125 4.625 5.59375C3.84375 6.375 3.84375 7.65625 4.625 8.4375C5.3125 9.125 6.71875 9.1875 7.5 8.5625V7.5H6C5.71875 7.5 5.5 7.28125 5.5 7C5.5 6.75 5.71875 6.5 6 6.5H8Z" fill="#091D37"/>
</svg>
