<svg width="126" height="37" viewBox="0 0 126 37" fill="none" xmlns="http://www.w3.org/2000/svg">
<rect width="126" height="37" rx="5" fill="#201D24"/>
<path d="M99.8056 27.7501H101.547V16.1861H99.8056V27.7501ZM115.492 20.3519L113.496 25.3653H113.436L111.364 20.3519H109.488L112.596 27.3588L110.824 31.2567H112.64L117.429 20.3519H115.492ZM105.615 26.4366C105.045 26.4366 104.249 26.1537 104.249 25.4546C104.249 24.562 105.24 24.2199 106.095 24.2199C106.861 24.2199 107.222 24.3832 107.687 24.6065C107.551 25.6779 106.621 26.4366 105.615 26.4366ZM105.826 20.0989C104.565 20.0989 103.259 20.6496 102.719 21.8695L104.264 22.509C104.595 21.8695 105.21 21.6613 105.855 21.6613C106.756 21.6613 107.672 22.1964 107.687 23.1489V23.2678C107.371 23.0893 106.695 22.8216 105.87 22.8216C104.203 22.8216 102.508 23.7288 102.508 25.4249C102.508 26.9721 103.874 27.969 105.405 27.969C106.575 27.969 107.222 27.4483 107.626 26.8381H107.687V27.7313H109.369V23.2974C109.369 21.2443 107.821 20.0989 105.826 20.0989ZM95.0624 21.7596H92.5853V17.7958H95.0624C96.3644 17.7958 97.1036 18.8639 97.1036 19.7777C97.1036 20.6738 96.3644 21.7596 95.0624 21.7596ZM95.0176 16.1861H90.8445V27.7501H92.5853V23.369H95.0176C96.9477 23.369 98.8452 21.9843 98.8452 19.7777C98.8452 17.5714 96.9477 16.1861 95.0176 16.1861ZM72.2616 26.4388C71.0584 26.4388 70.0515 25.44 70.0515 24.0696C70.0515 22.6832 71.0584 21.6703 72.2616 21.6703C73.4495 21.6703 74.3817 22.6832 74.3817 24.0696C74.3817 25.44 73.4495 26.4388 72.2616 26.4388ZM74.2614 20.9994H74.2012C73.8104 20.5375 73.0582 20.1203 72.1114 20.1203C70.1262 20.1203 68.307 21.8492 68.307 24.0696C68.307 26.2748 70.1262 27.9885 72.1114 27.9885C73.0582 27.9885 73.8104 27.5712 74.2012 27.0946H74.2614V27.6604C74.2614 29.1661 73.4495 29.9704 72.1413 29.9704C71.0741 29.9704 70.4125 29.2105 70.1415 28.5699L68.6231 29.1957C69.0588 30.2385 70.2163 31.5205 72.1413 31.5205C74.1866 31.5205 75.9158 30.3281 75.9158 27.422V20.3587H74.2614V20.9994ZM77.119 27.7501H78.8624V16.1861H77.119V27.7501ZM81.4338 23.9352C81.389 22.415 82.6224 21.6403 83.509 21.6403C84.201 21.6403 84.7868 21.9832 84.983 22.4747L81.4338 23.9352ZM86.8468 22.6235C86.5161 21.7448 85.5088 20.1203 83.4488 20.1203C81.4035 20.1203 79.7046 21.7148 79.7046 24.0544C79.7046 26.26 81.389 27.9885 83.6439 27.9885C85.4631 27.9885 86.5161 26.8861 86.9525 26.2451L85.5991 25.3508C85.1479 26.0066 84.5317 26.4388 83.6439 26.4388C82.7572 26.4388 82.1255 26.0363 81.72 25.2464L87.0272 23.0708L86.8468 22.6235ZM44.5595 21.3274V22.9964H48.5892C48.4689 23.9352 48.1531 24.6206 47.6719 25.0975C47.0853 25.6785 46.168 26.3195 44.5595 26.3195C42.0784 26.3195 40.1389 24.3376 40.1389 21.8788C40.1389 19.42 42.0784 17.4378 44.5595 17.4378C45.8978 17.4378 46.8749 17.9595 47.5968 18.6301L48.785 17.4526C47.7773 16.499 46.4393 15.7688 44.5595 15.7688C41.1608 15.7688 38.304 18.5109 38.304 21.8788C38.304 25.2464 41.1608 27.9885 44.5595 27.9885C46.3937 27.9885 47.7773 27.3924 48.8598 26.2748C49.9725 25.172 50.3185 23.6222 50.3185 22.3702C50.3185 21.9832 50.2881 21.6255 50.228 21.3274H44.5595ZM54.8998 26.4388C53.6967 26.4388 52.6591 25.4552 52.6591 24.0544C52.6591 22.6387 53.6967 21.6703 54.8998 21.6703C56.1025 21.6703 57.1401 22.6387 57.1401 24.0544C57.1401 25.4552 56.1025 26.4388 54.8998 26.4388ZM54.8998 20.1203C52.7039 20.1203 50.9149 21.7744 50.9149 24.0544C50.9149 26.3195 52.7039 27.9885 54.8998 27.9885C57.0949 27.9885 58.8843 26.3195 58.8843 24.0544C58.8843 21.7744 57.0949 20.1203 54.8998 20.1203ZM63.5918 26.4388C62.3895 26.4388 61.3515 25.4552 61.3515 24.0544C61.3515 22.6387 62.3895 21.6703 63.5918 21.6703C64.7949 21.6703 65.8322 22.6387 65.8322 24.0544C65.8322 25.4552 64.7949 26.4388 63.5918 26.4388ZM63.5918 20.1203C61.3967 20.1203 59.6077 21.7744 59.6077 24.0544C59.6077 26.3195 61.3967 27.9885 63.5918 27.9885C65.7877 27.9885 67.5767 26.3195 67.5767 24.0544C67.5767 21.7744 65.7877 20.1203 63.5918 20.1203Z" fill="#EFEFEF"/>
<path d="M41.5119 12.2417C40.6752 12.2417 39.9554 11.9499 39.3751 11.3749C38.7945 10.7995 38.5005 10.079 38.5005 9.24123C38.5005 8.40346 38.7947 7.68427 39.3751 7.10758C39.9554 6.53246 40.6752 6.24076 41.5119 6.24076C41.9382 6.24076 42.3361 6.31373 42.7163 6.46568C43.0967 6.61765 43.4079 6.82862 43.653 7.10469L43.7107 7.16991L43.058 7.81669L42.9927 7.7372C42.8302 7.5393 42.6235 7.38555 42.3616 7.27379C42.1007 7.16231 41.8148 7.11083 41.5119 7.11083C40.9226 7.11083 40.4335 7.3092 40.0252 7.71245C40.0251 7.71254 40.0249 7.71253 40.0248 7.71263C39.6257 8.12402 39.4251 8.62489 39.4251 9.24123C39.4251 9.85804 39.626 10.359 40.0255 10.7706C40.4339 11.1736 40.9229 11.3731 41.5119 11.3731C42.0515 11.3731 42.4977 11.2238 42.8485 10.9283H42.8487C43.1753 10.6532 43.3713 10.2816 43.4406 9.80779H41.4186V8.95506H44.3145L44.3269 9.03311C44.3506 9.183 44.3674 9.32771 44.3674 9.4667C44.3674 10.2624 44.1226 10.9119 43.6424 11.3897C43.1003 11.9592 42.3874 12.2417 41.5119 12.2417L41.5119 12.2417ZM66.6576 12.2417C65.8196 12.2417 65.1082 11.9497 64.5354 11.3749C64.5353 11.3748 64.5353 11.3748 64.5352 11.3747C64.5351 11.3746 64.5351 11.3746 64.535 11.3745C63.9614 10.8058 63.6768 10.0852 63.6768 9.24122C63.6768 8.39726 63.9614 7.67662 64.535 7.10794C64.5351 7.10787 64.5351 7.10784 64.5352 7.10775L64.5354 7.10757C65.1082 6.53259 65.8196 6.24074 66.6576 6.24074C67.494 6.24074 68.2056 6.53266 68.7784 7.11624C69.3522 7.68483 69.637 8.4041 69.637 9.24121C69.637 10.0852 69.3524 10.8058 68.7788 11.3745L68.7786 11.3747C68.2054 11.95 67.4872 12.2417 66.6576 12.2417L66.6576 12.2417ZM45.1961 12.1174V6.36505H45.2894H48.6625V7.23513H46.1046V8.81486H48.4117V9.66759H46.1046V11.2488H48.6625V12.1174H45.1961ZM50.784 12.1174V7.23513H49.2149V6.36505H53.2617V7.23513H53.1684H51.6926V12.1174H50.784ZM55.8481 12.1174V6.36505H56.7566V6.45755V12.1174H55.8481ZM59.0437 12.1174V7.23513H57.4745V6.36505H61.5214V7.23513H61.428H59.9522V12.1174H59.0437ZM70.4435 12.1174V6.36505H71.4679L74.0753 10.5019L74.0528 9.71655V6.36505H74.9614V12.1174H74.0623L71.3296 7.77152L71.352 8.55633V8.55759V12.1174H70.4435ZM66.6576 11.3731C67.247 11.3731 67.7281 11.1738 68.1203 10.7713L68.1209 10.7705L68.1215 10.77C68.5192 10.3756 68.7139 9.868 68.7139 9.2412C68.7139 8.61592 68.5192 8.10657 68.1215 7.71242L68.1209 7.71186L68.1203 7.71131C67.7282 7.30881 67.2471 7.11078 66.6576 7.11078C66.0671 7.11078 65.5861 7.30847 65.1865 7.71094L65.1862 7.71131C64.7957 8.11504 64.6014 8.61609 64.6014 9.24118C64.6014 9.86779 64.7957 10.3672 65.1862 10.771L65.1865 10.7714C65.5862 11.174 66.0673 11.373 66.6576 11.373V11.3731Z" fill="#EFEFEF"/>
<path d="M19.3336 17.9664L9.39685 28.4189C9.39722 28.4211 9.39797 28.4229 9.39834 28.4251C9.70308 29.56 10.7491 30.3958 11.9905 30.3958C12.4867 30.3958 12.9527 30.2628 13.3522 30.0294L13.384 30.0109L24.569 23.6144L19.3336 17.9664Z" fill="#EA4335"/>
<path d="M29.3866 16.1865L29.3771 16.1801L24.5482 13.4057L19.1079 18.2035L24.5672 23.6133L29.3706 20.8665C30.2127 20.4159 30.7844 19.5361 30.7844 18.5214C30.7844 17.5141 30.2204 16.6386 29.3866 16.1865Z" fill="#FBBC04"/>
<path d="M9.39643 8.58055C9.3367 8.79885 9.3053 9.02751 9.3053 9.26495V27.735C9.3053 27.972 9.33632 28.2014 9.3968 28.4189L19.6755 18.2338L9.39643 8.58055Z" fill="#4285F4"/>
<path d="M19.4069 18.4998L24.5501 13.4039L13.3777 6.98425C12.9716 6.74319 12.4977 6.60407 11.9905 6.60407C10.7491 6.60407 9.70168 7.44129 9.39686 8.57765C9.39648 8.57876 9.39648 8.5795 9.39648 8.58052L19.4069 18.4998Z" fill="#34A853"/>
</svg>
