<svg width="17" height="20" viewBox="0 0 17 20" fill="none" xmlns="http://www.w3.org/2000/svg">
<path d="M3.74668 2.1709C4.5156 2.1709 5.1447 2.80001 5.1447 3.56892V5.24656C5.1447 6.05042 4.5156 6.64458 3.74668 6.64458H2.06905C1.26518 6.64458 0.671021 6.05042 0.671021 5.24656V3.56892C0.671021 2.80001 1.26518 2.1709 2.06905 2.1709H3.74668ZM3.74668 7.763C4.5156 7.763 5.1447 8.39211 5.1447 9.16103V10.8387C5.1447 11.6425 4.5156 12.2367 3.74668 12.2367H2.06905C1.26518 12.2367 0.671021 11.6425 0.671021 10.8387V9.16103C0.671021 8.39211 1.26518 7.763 2.06905 7.763H3.74668ZM0.671021 14.7531C0.671021 13.9842 1.26518 13.3551 2.06905 13.3551H3.74668C4.5156 13.3551 5.1447 13.9842 5.1447 14.7531V16.4308C5.1447 17.2346 4.5156 17.8288 3.74668 17.8288H2.06905C1.26518 17.8288 0.671021 17.2346 0.671021 16.4308V14.7531ZM9.33878 2.1709C10.1077 2.1709 10.7368 2.80001 10.7368 3.56892V5.24656C10.7368 6.05042 10.1077 6.64458 9.33878 6.64458H7.66115C6.85728 6.64458 6.26313 6.05042 6.26313 5.24656V3.56892C6.26313 2.80001 6.85728 2.1709 7.66115 2.1709H9.33878ZM6.26313 9.16103C6.26313 8.39211 6.85728 7.763 7.66115 7.763H9.33878C10.1077 7.763 10.7368 8.39211 10.7368 9.16103V10.8387C10.7368 11.6425 10.1077 12.2367 9.33878 12.2367H7.66115C6.85728 12.2367 6.26313 11.6425 6.26313 10.8387V9.16103ZM9.33878 13.3551C10.1077 13.3551 10.7368 13.9842 10.7368 14.7531V16.4308C10.7368 17.2346 10.1077 17.8288 9.33878 17.8288H7.66115C6.85728 17.8288 6.26313 17.2346 6.26313 16.4308V14.7531C6.26313 13.9842 6.85728 13.3551 7.66115 13.3551H9.33878ZM11.8552 3.56892C11.8552 2.80001 12.4494 2.1709 13.2533 2.1709H14.9309C15.6998 2.1709 16.3289 2.80001 16.3289 3.56892V5.24656C16.3289 6.05042 15.6998 6.64458 14.9309 6.64458H13.2533C12.4494 6.64458 11.8552 6.05042 11.8552 5.24656V3.56892ZM14.9309 7.763C15.6998 7.763 16.3289 8.39211 16.3289 9.16103V10.8387C16.3289 11.6425 15.6998 12.2367 14.9309 12.2367H13.2533C12.4494 12.2367 11.8552 11.6425 11.8552 10.8387V9.16103C11.8552 8.39211 12.4494 7.763 13.2533 7.763H14.9309ZM11.8552 14.7531C11.8552 13.9842 12.4494 13.3551 13.2533 13.3551H14.9309C15.6998 13.3551 16.3289 13.9842 16.3289 14.7531V16.4308C16.3289 17.2346 15.6998 17.8288 14.9309 17.8288H13.2533C12.4494 17.8288 11.8552 17.2346 11.8552 16.4308V14.7531Z" fill="#B5CE5D"/>
</svg>
