<svg width="72" height="72" viewBox="0 0 72 72" fill="none" xmlns="http://www.w3.org/2000/svg">
<g clip-path="url(#clip0_3854_111503)">
<path d="M36 72C55.8823 72 72 55.8823 72 36C72 16.1178 55.8823 0 36 0C16.1178 0 0 16.1178 0 36C0 55.8823 16.1178 72 36 72Z" fill="url(#paint0_linear_3854_111503)"/>
<g filter="url(#filter0_d_3854_111503)">
<path d="M50.3998 26.0004V46.0004C50.3998 46.6644 49.8558 47.2004 49.1998 47.2004C48.5438 47.2004 47.9998 46.6644 47.9998 46.0004V26.0004C47.9998 25.3444 48.5438 24.8004 49.1998 24.8004C49.8558 24.8004 50.3998 25.3444 50.3998 26.0004ZM22.7998 24.8004C22.1438 24.8004 21.5998 25.3444 21.5998 26.0004V46.0004C21.5998 46.6644 22.1438 47.2004 22.7998 47.2004C23.4558 47.2004 23.9998 46.6644 23.9998 46.0004V26.0004C23.9998 25.3444 23.4558 24.8004 22.7998 24.8004ZM53.9998 27.2004C53.3438 27.2004 52.7998 27.7444 52.7998 28.4004V43.6004C52.7998 44.2644 53.3438 44.8004 53.9998 44.8004C54.6558 44.8004 55.1998 44.2644 55.1998 43.6004V28.4004C55.1998 27.7444 54.6558 27.2004 53.9998 27.2004ZM17.9998 27.2004C17.3438 27.2004 16.7998 27.7444 16.7998 28.4004V43.6004C16.7998 44.2644 17.3438 44.8004 17.9998 44.8004C18.6558 44.8004 19.1998 44.2644 19.1998 43.6004V28.4004C19.1998 27.7444 18.6558 27.2004 17.9998 27.2004ZM43.9998 22.4004H27.9998C27.1198 22.4004 26.3998 23.1204 26.3998 24.0004V48.0004C26.3998 48.8804 27.1198 49.6004 27.9998 49.6004H43.9998C44.8798 49.6004 45.5998 48.8804 45.5998 48.0004V24.0004C45.5998 23.1204 44.8798 22.4004 43.9998 22.4004Z" fill="white"/>
</g>
</g>
<defs>
<filter id="filter0_d_3854_111503" x="6.7998" y="16.4004" width="58.3999" height="47.1992" filterUnits="userSpaceOnUse" color-interpolation-filters="sRGB">
<feFlood flood-opacity="0" result="BackgroundImageFix"/>
<feColorMatrix in="SourceAlpha" type="matrix" values="0 0 0 0 0 0 0 0 0 0 0 0 0 0 0 0 0 0 127 0" result="hardAlpha"/>
<feOffset dy="4"/>
<feGaussianBlur stdDeviation="5"/>
<feComposite in2="hardAlpha" operator="out"/>
<feColorMatrix type="matrix" values="0 0 0 0 0 0 0 0 0 0 0 0 0 0 0 0 0 0 0.35 0"/>
<feBlend mode="normal" in2="BackgroundImageFix" result="effect1_dropShadow_3854_111503"/>
<feBlend mode="normal" in="SourceGraphic" in2="effect1_dropShadow_3854_111503" result="shape"/>
</filter>
<linearGradient id="paint0_linear_3854_111503" x1="10.5442" y1="61.4558" x2="61.4558" y2="10.5442" gradientUnits="userSpaceOnUse">
<stop stop-color="#3ABCD4"/>
<stop offset="1" stop-color="#BBD982"/>
</linearGradient>
<clipPath id="clip0_3854_111503">
<rect width="72" height="72" fill="white"/>
</clipPath>
</defs>
</svg>
