<svg width="72" height="72" viewBox="0 0 72 72" fill="none" xmlns="http://www.w3.org/2000/svg">
<g clip-path="url(#clip0_3854_111498)">
<path d="M36 72C55.8823 72 72 55.8823 72 36C72 16.1178 55.8823 0 36 0C16.1178 0 0 16.1178 0 36C0 55.8823 16.1178 72 36 72Z" fill="url(#paint0_linear_3854_111498)"/>
<g filter="url(#filter0_d_3854_111498)">
<path d="M31.8798 46.7199L31.4958 46.1759L31.4238 46.0878L31.3598 45.9998C31.3118 45.9358 31.2638 45.8798 31.2158 45.8238C31.1198 45.7118 31.0238 45.5918 30.9198 45.4798C30.8718 45.4238 30.8238 45.3678 30.7678 45.3118L30.6158 45.1518L30.5358 45.0718L30.4558 44.9919L30.2958 44.8319C29.8638 44.4159 29.4158 44.0318 28.9438 43.6798C28.4718 43.3198 27.9918 42.9918 27.4878 42.6958C26.9918 42.3918 26.4798 42.1118 25.9598 41.8558C25.4398 41.5998 24.9118 41.3598 24.3758 41.1438C23.3118 40.7118 22.2158 40.3518 21.1118 40.0558C22.1838 40.4638 23.2318 40.9199 24.2398 41.4479C24.7438 41.7119 25.2398 41.9918 25.7198 42.2958C26.1998 42.5998 26.6638 42.9118 27.1198 43.2558C27.5678 43.5918 27.9998 43.9518 28.4158 44.3358C28.8238 44.7118 29.2158 45.1118 29.5758 45.5358L29.7118 45.6958L29.7758 45.7759L29.8398 45.8558L29.9678 46.0158C30.0078 46.0718 30.0478 46.1278 30.0878 46.1838C30.1678 46.2878 30.2478 46.4079 30.3278 46.5199C30.3678 46.5759 30.3998 46.6318 30.4398 46.6878L30.4958 46.7759L30.5518 46.8639C30.6958 47.0959 30.8238 47.3278 30.9358 47.5678L31.1438 47.9998C29.6318 50.4638 25.7438 51.6078 21.3678 48.6078C16.7118 45.4158 16.6878 37.0318 16.8398 34.8398C16.8958 34.0558 16.9198 33.9998 17.3758 34.2878C21.4478 36.8398 23.8558 36.3918 27.0638 37.8878C31.3118 39.8558 32.7438 44.1119 31.8798 46.7199ZM54.7438 22.3838C54.5758 21.5118 54.6318 21.2958 53.7038 22.0798C47.8958 26.9918 44.1838 26.9118 39.4718 30.0238C32.9358 34.3438 31.3598 40.6718 33.8078 44.0798C33.9918 43.1838 34.3678 42.6638 34.5998 42.2798C34.8398 41.8958 35.0958 41.5278 35.3598 41.1678C35.6318 40.8078 35.9038 40.4638 36.1918 40.1278C37.3438 38.7838 38.6478 37.5999 40.0158 36.5199L40.2718 36.3199C40.3598 36.2559 40.4398 36.1839 40.5278 36.1199L41.0478 35.7278C41.2238 35.5998 41.3998 35.4798 41.5758 35.3518C41.6638 35.2878 41.7518 35.2238 41.8398 35.1598L42.1118 34.9759L42.3838 34.7919C42.4718 34.7279 42.5598 34.6718 42.6558 34.6158L43.1998 34.2718C43.2878 34.2158 43.3838 34.1518 43.4718 34.0958L43.7438 33.9278C43.9278 33.8158 44.1118 33.6959 44.2958 33.5919C45.7838 32.7039 47.3038 31.8958 48.8558 31.1438C47.3518 31.9918 45.8878 32.8958 44.4718 33.8718C44.2958 33.9918 44.1198 34.1198 43.9438 34.2398L43.6798 34.4238C43.5918 34.4878 43.5038 34.5518 43.4158 34.6158L42.8958 34.9998C42.8078 35.0638 42.7278 35.1279 42.6398 35.1919L42.3838 35.3919L42.1278 35.5919C42.0478 35.6559 41.9598 35.7279 41.8798 35.7919C41.7118 35.9279 41.5438 36.0638 41.3838 36.1998L40.8958 36.6158C40.8158 36.6878 40.7358 36.7598 40.6558 36.8238L40.4158 37.0398C39.1438 38.1838 37.9518 39.4158 36.9358 40.7678C36.6798 41.1038 36.4398 41.4478 36.2078 41.7998C35.9838 42.1518 35.7678 42.5118 35.5678 42.8798C35.3758 43.2478 35.1918 43.6158 35.0398 43.9998L34.6798 44.8798C37.3678 47.6158 43.5198 47.7598 49.7998 42.2398C56.5118 36.3678 55.2958 25.2478 54.7438 22.3838Z" fill="white"/>
</g>
</g>
<defs>
<filter id="filter0_d_3854_111498" x="6.79834" y="15.5957" width="58.4014" height="48.8086" filterUnits="userSpaceOnUse" color-interpolation-filters="sRGB">
<feFlood flood-opacity="0" result="BackgroundImageFix"/>
<feColorMatrix in="SourceAlpha" type="matrix" values="0 0 0 0 0 0 0 0 0 0 0 0 0 0 0 0 0 0 127 0" result="hardAlpha"/>
<feOffset dy="4"/>
<feGaussianBlur stdDeviation="5"/>
<feComposite in2="hardAlpha" operator="out"/>
<feColorMatrix type="matrix" values="0 0 0 0 0 0 0 0 0 0 0 0 0 0 0 0 0 0 0.35 0"/>
<feBlend mode="normal" in2="BackgroundImageFix" result="effect1_dropShadow_3854_111498"/>
<feBlend mode="normal" in="SourceGraphic" in2="effect1_dropShadow_3854_111498" result="shape"/>
</filter>
<linearGradient id="paint0_linear_3854_111498" x1="10.5442" y1="61.4558" x2="61.4558" y2="10.5442" gradientUnits="userSpaceOnUse">
<stop stop-color="#3ABCD4"/>
<stop offset="1" stop-color="#BBD982"/>
</linearGradient>
<clipPath id="clip0_3854_111498">
<rect width="72" height="72" fill="white"/>
</clipPath>
</defs>
</svg>
