<svg width="40" height="40" viewBox="0 0 40 40" fill="none" xmlns="http://www.w3.org/2000/svg">
<g clip-path="url(#clip0_3_31)">
<path d="M20 40C31.0457 40 40 31.0457 40 20C40 8.9543 31.0457 0 20 0C8.9543 0 0 8.9543 0 20C0 31.0457 8.9543 40 20 40Z" fill="#B0CF46"/>
<path d="M22.918 17.8789C22.5312 18.2305 21.9688 18.2305 21.5469 17.9141L17.75 15.0664L12.793 19.0039C12.3359 19.3906 11.6328 19.3203 11.2461 18.8281C10.8242 18.3711 10.9297 17.668 11.4219 17.2461L17.0469 12.7812C17.4336 12.4297 17.9961 12.4297 18.418 12.7461L22.2148 15.5938L27.1719 11.6562C27.6289 11.2344 28.332 11.3398 28.7188 11.832C29.1406 12.2891 29.0352 12.9922 28.543 13.3789L22.918 17.8789ZM16.625 19.25C16.625 18.6523 17.1172 18.125 17.75 18.125C18.3477 18.125 18.875 18.6523 18.875 19.25V26C18.875 26.6328 18.3477 27.125 17.75 27.125C17.1172 27.125 16.625 26.6328 16.625 26V19.25ZM12.125 22.625C12.125 22.0273 12.6172 21.5 13.25 21.5C13.8477 21.5 14.375 22.0273 14.375 22.625V26C14.375 26.6328 13.8477 27.125 13.25 27.125C12.6172 27.125 12.125 26.6328 12.125 26V22.625ZM23.375 21.5V26C23.375 26.6328 22.8477 27.125 22.25 27.125C21.6172 27.125 21.125 26.6328 21.125 26V21.5C21.125 20.9023 21.6172 20.375 22.25 20.375C22.8477 20.375 23.375 20.9023 23.375 21.5ZM25.625 19.25C25.625 18.6523 26.1172 18.125 26.75 18.125C27.3477 18.125 27.875 18.6523 27.875 19.25V26C27.875 26.6328 27.3477 27.125 26.75 27.125C26.1172 27.125 25.625 26.6328 25.625 26V19.25Z" fill="white"/>
</g>
<defs>
<clipPath id="clip0_3_31">
<rect width="40" height="40" fill="white"/>
</clipPath>
</defs>
</svg>
