<svg width="13" height="12" viewBox="0 0 13 12" fill="none" xmlns="http://www.w3.org/2000/svg">
<path fill-rule="evenodd" clip-rule="evenodd" d="M1.86217 2.28859C1.86217 1.29357 2.68158 0.5 3.67613 0.5H10.1878C11.1823 0.5 12.0017 1.29357 12.0017 2.28859V5.94186C12.0017 6.93686 11.1823 7.73042 10.1878 7.73042H10.1413V8.22515C10.1413 9.22015 9.32186 10.0138 8.32731 10.0138H5.1856L2.95836 11.3258C2.82894 11.402 2.66859 11.4031 2.53819 11.3286C2.40777 11.254 2.32729 11.1153 2.32729 10.9651V10.0138H1.81566C0.821119 10.0138 0.00170898 9.22015 0.00170898 8.22515V4.57191C0.00170898 3.57687 0.821119 2.7833 1.81566 2.7833H1.86217V2.28859ZM2.69938 2.7833H8.32731C9.32186 2.7833 10.1413 3.57687 10.1413 4.57191V6.89321H10.1878C10.7345 6.89321 11.1645 6.46009 11.1645 5.94186V2.28859C11.1645 1.77036 10.7345 1.33721 10.1878 1.33721H3.67613C3.12941 1.33721 2.69938 1.77036 2.69938 2.28859V2.7833ZM1.81566 3.62051C1.26895 3.62051 0.838918 4.05366 0.838918 4.57191V8.22515C0.838918 8.74339 1.26895 9.17656 1.81566 9.17656H2.7459C2.97708 9.17656 3.1645 9.36392 3.1645 9.59516V10.2327L4.85901 9.23444C4.92338 9.19654 4.99678 9.17656 5.07146 9.17656H8.32731C8.87401 9.17656 9.30405 8.74339 9.30405 8.22515V4.57191C9.30405 4.05366 8.87401 3.62051 8.32731 3.62051H1.81566ZM2.32729 5.48519C2.32729 5.25401 2.5147 5.06659 2.7459 5.06659H5.45909C5.69027 5.06659 5.87769 5.25401 5.87769 5.48519C5.87769 5.71637 5.69027 5.9038 5.45909 5.9038H2.7459C2.5147 5.9038 2.32729 5.71637 2.32729 5.48519ZM2.32729 7.08348C2.32729 6.8523 2.5147 6.66487 2.7459 6.66487H7.39706C7.62824 6.66487 7.81566 6.8523 7.81566 7.08348C7.81566 7.31472 7.62824 7.50208 7.39706 7.50208H2.7459C2.5147 7.50208 2.32729 7.31472 2.32729 7.08348Z" fill="#334266"/>
</svg>
