<svg width="17" height="16" viewBox="0 0 17 16" fill="none" xmlns="http://www.w3.org/2000/svg">
<path d="M8.5 0C12.9062 0 16.5 3.59375 16.5 8C16.5 12.4375 12.9062 16 8.5 16C5.875 16 3.53125 14.75 2.09375 12.8125C1.90625 12.5938 1.96875 12.2812 2.1875 12.125C2.40625 11.9375 2.71875 12 2.875 12.2188C4.15625 13.9062 6.1875 15 8.5 15C12.3438 15 15.5 11.875 15.5 8C15.5 4.15625 12.3438 1 8.5 1C5.6875 1 3.28125 2.65625 2.15625 5H5C5.25 5 5.5 5.25 5.5 5.5C5.5 5.78125 5.25 6 5 6H1C0.71875 6 0.5 5.78125 0.5 5.5V1.5C0.5 1.25 0.71875 1 1 1C1.25 1 1.5 1.25 1.5 1.5V4.125C2.84375 1.6875 5.46875 0 8.5 0ZM8.5 4C8.75 4 9 4.25 9 4.5V7.8125L11.3438 10.1562C11.5312 10.3438 11.5312 10.6875 11.3438 10.875C11.1562 11.0625 10.8125 11.0625 10.625 10.875L8.125 8.375C8.03125 8.28125 7.96875 8.15625 7.96875 8V4.5C7.96875 4.25 8.21875 4 8.46875 4H8.5Z" fill="#091D37"/>
</svg>
