<svg width="24" height="21" viewBox="0 0 24 21" fill="none" xmlns="http://www.w3.org/2000/svg">
<path d="M22.8984 9.48438C23.2891 9.83594 23.3281 10.4219 23.0156 10.8125C22.6641 11.2031 22.0781 11.2422 21.6875 10.9297L20.75 10.1094V17.375C20.75 19.1328 19.3438 20.5 17.625 20.5H6.375C4.61719 20.5 3.25 19.1328 3.25 17.375V10.1094L2.27344 10.9297C1.88281 11.2422 1.29688 11.2031 0.945312 10.8125C0.632812 10.4219 0.671875 9.83594 1.0625 9.48438L11.375 0.734375C11.7266 0.460938 12.2344 0.460938 12.5859 0.734375L22.8984 9.48438ZM6.375 18.625H8.25V12.6875C8.25 11.8281 8.91406 11.125 9.8125 11.125H14.1875C15.0469 11.125 15.75 11.8281 15.75 12.6875V18.625H17.625C18.2891 18.625 18.875 18.0781 18.875 17.375V8.50781L12 2.6875L5.125 8.50781V17.375C5.125 18.0781 5.67188 18.625 6.375 18.625ZM10.125 18.625H13.875V13H10.125V18.625Z" fill="#334266"/>
</svg>
