<svg width="17" height="14" viewBox="0 0 17 14" fill="none" xmlns="http://www.w3.org/2000/svg">
<path d="M11.125 3.9375L14.8125 9.53125C15.0312 9.8125 15.0312 10.1875 14.875 10.5C14.7188 10.8125 14.375 11 14.0312 11H3.9375C3.59375 11 3.25 10.8125 3.09375 10.5C2.9375 10.1562 2.96875 9.78125 3.15625 9.5L5.1875 6.6875C5.53125 6.1875 6.375 6.1875 6.75 6.6875L7.25 7.40625L9.53125 3.9375C9.90625 3.40625 10.7812 3.40625 11.125 3.9375ZM3.96875 10H13.9688L10.3125 4.5L7.6875 8.5625C7.59375 8.6875 7.4375 8.78125 7.28125 8.78125C7.125 8.8125 6.96875 8.71875 6.875 8.5625L5.9375 7.28125L3.96875 10ZM14.9688 0C16.0938 0 16.9688 0.90625 16.9688 2V12C16.9688 13.125 16.0625 14 14.9688 14H2.96875C1.875 14 0.96875 13.125 0.96875 12V2C0.96875 0.90625 1.875 0 2.96875 0H14.9688ZM16 12V2C16 1.46875 15.5312 1 15 1H3C2.4375 1 2 1.46875 2 2V12C2 12.5625 2.4375 13 3 13H15C15.5312 13 16 12.5625 16 12ZM5.5 5C4.65625 5 4 4.34375 4 3.5C4 2.6875 4.65625 2 5.5 2C6.3125 2 7 2.6875 7 3.5C7 4.34375 6.3125 5 5.5 5ZM5.5 3C5.21875 3 5 3.25 5 3.5C5 3.78125 5.21875 4 5.5 4C5.75 4 5.96875 3.78125 5.96875 3.5C5.96875 3.25 5.75 3 5.5 3Z" fill="#091D37"/>
</svg>
