<svg width="14" height="12" viewBox="0 0 14 12" fill="none" xmlns="http://www.w3.org/2000/svg">
<path d="M12.5 0.75C13.3203 0.75 14 1.42969 14 2.25V7.5C14 8.34375 13.3203 9 12.5 9H4.25C3.40625 9 2.75 8.34375 2.75 7.5V2.25C2.75 1.42969 3.40625 0.75 4.25 0.75H12.5ZM12.875 7.5V2.25C12.875 2.0625 12.6875 1.875 12.5 1.875H4.25C4.03906 1.875 3.875 2.0625 3.875 2.25V7.5C3.875 7.71094 4.03906 7.875 4.25 7.875H4.625L6.33594 5.60156C6.40625 5.50781 6.5 5.4375 6.64062 5.4375C6.75781 5.4375 6.85156 5.50781 6.92188 5.60156L7.46094 6.32812L8.91406 4.125C8.98438 4.00781 9.10156 3.9375 9.24219 3.9375C9.35938 3.9375 9.47656 4.00781 9.54688 4.125L12.125 7.875H12.5C12.6875 7.875 12.875 7.71094 12.875 7.5ZM5.75 2.625C6.14844 2.625 6.5 2.97656 6.5 3.375C6.5 3.79688 6.14844 4.125 5.75 4.125C5.32812 4.125 5 3.79688 5 3.375C5 2.97656 5.32812 2.625 5.75 2.625ZM11.1875 11.25C11.4922 11.25 11.75 11.0156 11.75 10.6875C11.75 10.3828 11.4922 10.125 11.1875 10.125H3.3125C2.375 10.125 1.625 9.375 1.625 8.4375V2.8125C1.625 2.50781 1.36719 2.25 1.0625 2.25C0.734375 2.25 0.5 2.50781 0.5 2.8125V8.4375C0.5 10.0078 1.74219 11.25 3.3125 11.25H11.1875Z" fill="#334266"/>
</svg>
