<svg width="16" height="16" viewBox="0 0 16 16" fill="none" xmlns="http://www.w3.org/2000/svg">
<g clip-path="url(#clip0_4034_15421)">
<path d="M0.666667 3.99935H15.3333C15.5101 3.99935 15.6797 3.92911 15.8047 3.80408C15.9298 3.67906 16 3.50949 16 3.33268C16 3.15587 15.9298 2.9863 15.8047 2.86128C15.6797 2.73625 15.5101 2.66602 15.3333 2.66602H0.666667C0.489856 2.66602 0.320286 2.73625 0.195262 2.86128C0.0702379 2.9863 0 3.15587 0 3.33268C0 3.50949 0.0702379 3.67906 0.195262 3.80408C0.320286 3.92911 0.489856 3.99935 0.666667 3.99935Z" fill="#091D37"/>
<path d="M15.3333 6H0.666667C0.489856 6 0.320286 6.07024 0.195262 6.19526C0.0702379 6.32029 0 6.48985 0 6.66667C0 6.84348 0.0702379 7.01304 0.195262 7.13807C0.320286 7.26309 0.489856 7.33333 0.666667 7.33333H15.3333C15.5101 7.33333 15.6797 7.26309 15.8047 7.13807C15.9298 7.01304 16 6.84348 16 6.66667C16 6.48985 15.9298 6.32029 15.8047 6.19526C15.6797 6.07024 15.5101 6 15.3333 6Z" fill="#091D37"/>
<path d="M15.3333 12.666H0.666667C0.489856 12.666 0.320286 12.7363 0.195262 12.8613C0.0702379 12.9863 0 13.1559 0 13.3327C0 13.5095 0.0702379 13.6791 0.195262 13.8041C0.320286 13.9291 0.489856 13.9994 0.666667 13.9994H15.3333C15.5101 13.9994 15.6797 13.9291 15.8047 13.8041C15.9298 13.6791 16 13.5095 16 13.3327C16 13.1559 15.9298 12.9863 15.8047 12.8613C15.6797 12.7363 15.5101 12.666 15.3333 12.666Z" fill="#091D37"/>
<path d="M15.3333 9.33398H0.666667C0.489856 9.33398 0.320286 9.40422 0.195262 9.52925C0.0702379 9.65427 0 9.82384 0 10.0007C0 10.1775 0.0702379 10.347 0.195262 10.4721C0.320286 10.5971 0.489856 10.6673 0.666667 10.6673H15.3333C15.5101 10.6673 15.6797 10.5971 15.8047 10.4721C15.9298 10.347 16 10.1775 16 10.0007C16 9.82384 15.9298 9.65427 15.8047 9.52925C15.6797 9.40422 15.5101 9.33398 15.3333 9.33398Z" fill="#091D37"/>
</g>
<defs>
<clipPath id="clip0_4034_15421">
<rect width="16" height="16" fill="white"/>
</clipPath>
</defs>
</svg>
