<svg width="13" height="11" viewBox="0 0 13 11" fill="none" xmlns="http://www.w3.org/2000/svg">
<path d="M4.375 4.375C4.77344 4.375 5.10156 4.72656 5.10156 5.125C5.10156 5.54688 4.77344 5.875 4.375 5.875C3.95312 5.875 3.625 5.54688 3.625 5.125C3.625 4.72656 3.95312 4.375 4.375 4.375ZM7 4.375C7.39844 4.375 7.72656 4.72656 7.72656 5.125C7.72656 5.5 7.375 5.85156 7 5.85156C6.60156 5.85156 6.25 5.52344 6.25 5.125C6.25 4.70312 6.57812 4.375 7 4.375ZM9.625 4.375C10.0234 4.375 10.375 4.72656 10.3516 5.125C10.3516 5.54688 10.0234 5.875 9.625 5.875C9.22656 5.875 8.875 5.54688 8.875 5.125C8.875 4.72656 9.20312 4.375 9.625 4.375ZM7 0.25C10.3047 0.25 12.9766 2.47656 12.9766 5.14844C12.9766 7.82031 10.3047 10 7 10C6.22656 10 5.47656 9.88281 4.82031 9.67188C4.11719 10.1641 2.99219 10.75 1.5625 10.75C1.32812 10.75 1.11719 10.6328 1.04688 10.3984C0.976562 10.1875 1 9.95312 1.16406 9.78906C1.16406 9.78906 1.89062 8.99219 2.24219 8.07812C1.46875 7.25781 1 6.22656 1 5.125C1 2.42969 3.67188 0.25 7 0.25ZM7 8.875C9.67188 8.875 11.8281 7.21094 11.8281 5.125C11.8281 3.0625 9.64844 1.375 6.97656 1.375C4.30469 1.375 2.125 3.0625 2.125 5.125C2.125 6.13281 2.61719 6.88281 3.03906 7.32812L3.53125 7.84375L3.27344 8.5C3.15625 8.82812 2.99219 9.15625 2.80469 9.4375C3.36719 9.25 3.83594 8.99219 4.16406 8.75781L4.60938 8.42969L5.14844 8.59375C5.73438 8.78125 6.36719 8.875 7 8.875Z" fill="#1A2849"/>
</svg>
