<svg width="16" height="16" viewBox="0 0 16 16" fill="none" xmlns="http://www.w3.org/2000/svg">
<path fill-rule="evenodd" clip-rule="evenodd" d="M13.86 3.06392C13.4474 3.36958 12.6828 3.84057 12.285 4.02927C9.25043 5.46905 8.98837 5.60247 8.32198 6.21399C6.90923 7.51029 6.13726 9.21163 6.95018 10.5326C7.12455 10.8699 7.06805 10.7329 7.35664 10.2278C7.96632 9.26243 8.98248 8.29709 10.4051 7.28094C10.9132 7.0269 10.6083 7.17933 10.2019 7.53498C7.10138 9.86023 6.18806 11.6504 9.33813 11.8536C13.0113 11.8241 15.6189 7.58223 14.8253 3.11473C14.7287 2.57089 14.7188 2.42792 13.86 3.06392ZM0.802482 7.6874C0.853289 11.5488 2.78397 13.5635 5.17192 12.9206C6.67633 12.5155 6.32311 11.4157 4.359 10.1262C4.15577 9.97374 4.00904 9.87212 4.05416 9.87212C4.40981 10.0245 5.29365 10.569 5.83242 11.0915C6.49291 11.8028 6.69589 11.7048 6.54372 10.685C6.34405 9.35368 5.33481 8.54717 3.34285 7.99225C2.45891 7.74603 1.36136 7.23013 1.02252 7.12308C0.683683 7.01602 0.801567 7.13777 0.802482 7.6874Z" fill="#AECF6D"/>
</svg>
