<svg width="24" height="19" viewBox="0 0 24 19" fill="none" xmlns="http://www.w3.org/2000/svg">
<path fill-rule="evenodd" clip-rule="evenodd" d="M0 0H24V1H0V0ZM0 6H24V7H0V6ZM1.2857 13H0.840043H0.402274H0V18.9187H0.985966V16.9512L0.88861 14.3151L2.59112 18.9187H3.29313L4.99968 14.3124L4.90223 16.9512V18.9187H5.89214V13H5.48592H5.04815H4.60249L2.94607 17.565L1.2857 13ZM11.6336 18.9187V18.1098H8.86502V16.2683H11.2353V15.4715H8.86502V13.813H11.6139V13H8.86502H8.58501H7.87511V18.9187H8.58501H8.86502H11.6336ZM17.805 13V18.9187H16.8151L14.2397 14.6789V18.9187H13.2498V13H14.2397L16.823 17.248V13H17.805ZM24 13H23.014V16.9553C23.014 17.2398 22.9667 17.4743 22.8721 17.6585C22.7774 17.8401 22.6433 17.9743 22.4698 18.061C22.2989 18.1477 22.0951 18.1911 21.8585 18.1911C21.6218 18.1911 21.4168 18.1477 21.2432 18.061C21.0697 17.9743 20.9356 17.8401 20.841 17.6585C20.7463 17.4743 20.699 17.2398 20.699 16.9553V13H19.713V16.9553C19.713 17.4051 19.805 17.7818 19.9891 18.0854C20.1758 18.3889 20.4308 18.6179 20.7542 18.7724C21.0776 18.9241 21.4457 19 21.8585 19C22.2581 19 22.6196 18.9241 22.943 18.7724C23.2691 18.6179 23.5267 18.3889 23.716 18.0854C23.9053 17.7818 24 17.4051 24 16.9553V13Z" fill="#091D37"/>
</svg>
