<svg width="21" height="21" viewBox="0 0 21 21" fill="none" xmlns="http://www.w3.org/2000/svg">
<path d="M6.66406 7.375C7.36719 7.375 7.875 7.96094 7.875 8.625C7.875 9.32812 7.32812 9.875 6.66406 9.875C6 9.875 5.45312 9.32812 5.45312 8.625C5.45312 7.96094 5.96094 7.375 6.66406 7.375ZM11.0391 7.375C11.7422 7.375 12.25 7.96094 12.25 8.625C12.25 9.32812 11.7422 9.875 11.0391 9.875C10.3359 9.875 9.78906 9.32812 9.78906 8.625C9.78906 7.96094 10.3359 7.375 11.0391 7.375ZM15.4141 7.375C16.1172 7.375 16.625 7.96094 16.625 8.625C16.625 9.32812 16.0781 9.875 15.4141 9.875C14.75 9.875 14.2031 9.32812 14.2031 8.625C14.2031 7.96094 14.7109 7.375 15.4141 7.375ZM18.4609 0.5C19.8672 0.5 20.9609 1.63281 20.9609 3V14.1719C20.9609 15.5 19.8281 16.6328 18.4609 16.6328H12.8359L7.95312 20.3047C7.64062 20.5 7.21094 20.3047 7.21094 19.9141V16.6719H3.46094C2.05469 16.6719 0.960938 15.5781 0.960938 14.2109V3C0.960938 1.63281 2.05469 0.5 3.46094 0.5H18.4609ZM19.125 14.25V3C19.125 2.6875 18.8125 2.375 18.5 2.375H3.5C3.14844 2.375 2.875 2.6875 2.875 3V14.25C2.875 14.6016 3.14844 14.875 3.5 14.875H9.125V17.2188L12.25 14.875H18.5C18.8125 14.875 19.125 14.6016 19.125 14.25Z" fill="#334266"/>
</svg>
