<svg width="12" height="15" viewBox="0 0 12 15" fill="none" xmlns="http://www.w3.org/2000/svg">
<path d="M3.99989 5L10.9999 3M10.9999 7.36867V9.86867C10.9998 10.1946 10.8936 10.5116 10.6973 10.7718C10.501 11.032 10.2253 11.2211 9.91189 11.3107L9.03189 11.562C8.8793 11.6081 8.71907 11.6234 8.56052 11.607C8.40197 11.5906 8.24827 11.5428 8.10835 11.4665C7.96844 11.3901 7.84511 11.2867 7.74554 11.1622C7.64597 11.0377 7.57216 10.8947 7.52839 10.7414C7.48463 10.5882 7.47178 10.4277 7.49061 10.2694C7.50943 10.1111 7.55955 9.95819 7.63805 9.81946C7.71654 9.68073 7.82185 9.559 7.94783 9.46135C8.07382 9.3637 8.21796 9.29208 8.37189 9.25067L9.91189 8.81067C10.2253 8.72114 10.501 8.53199 10.6973 8.27181C10.8936 8.01163 10.9998 7.69459 10.9999 7.36867ZM10.9999 7.36867V0.5L3.99989 2.5V9.36867M3.99989 9.36867V11.8687C3.99982 12.1946 3.8936 12.5116 3.69729 12.7718C3.50099 13.032 3.22528 13.2211 2.91189 13.3107L2.03189 13.562C1.72712 13.644 1.40233 13.6028 1.12765 13.4474C0.852971 13.292 0.650435 13.0348 0.563778 12.7313C0.477122 12.4278 0.513297 12.1025 0.664494 11.8254C0.81569 11.5484 1.06978 11.342 1.37189 11.2507L2.91189 10.8107C3.22528 10.7211 3.50099 10.532 3.69729 10.2718C3.8936 10.0116 3.99982 9.69459 3.99989 9.36867Z" stroke="white" stroke-linecap="round" stroke-linejoin="round"/>
</svg>
