<svg width="17" height="16" viewBox="0 0 17 16" fill="none" xmlns="http://www.w3.org/2000/svg">
<path d="M15.5312 0C16.0312 0 16.5 0.4375 16.5 1L16.4375 11.4688C16.4375 12.8438 15.125 13.9688 13.4688 13.9688C11.8125 13.9688 10.5 12.8438 10.5 11.5C10.5 10.125 11.8125 9 13.4688 9C14.25 9 14.9688 9.25 15.5 9.65625V5L6.5 8L6.4375 13.5312C6.4375 14.9062 5.125 16 3.46875 16C1.8125 16 0.5 14.9062 0.5 13.5C0.5 12.125 1.8125 11 3.46875 11C4.25 11 4.96875 11.25 5.5 11.6562V4C5.5 3.5625 5.75 3.1875 6.15625 3.0625L15.25 0.0625C15.3438 0.03125 15.4375 0 15.5312 0ZM3.5 15C4.5625 15 5.5 14.3125 5.5 13.5C5.5 12.6875 4.5625 12 3.5 12C2.40625 12 1.5 12.6875 1.5 13.5C1.5 14.3438 2.40625 15 3.5 15ZM13.5 13C14.5625 13 15.5 12.3125 15.5 11.5C15.5 10.6875 14.5625 10 13.5 10C12.4062 10 11.5 10.7188 11.5 11.5C11.5 12.3438 12.4062 13 13.5 13ZM15.5 3.96875V1.03125L6.46875 4H6.5V6.96875L15.5 3.96875Z" fill="#091D37"/>
</svg>
