<svg width="25" height="24" viewBox="0 0 25 24" fill="none" xmlns="http://www.w3.org/2000/svg">
<path d="M9.50081 9L20.0008 6M20.0008 12.553V16.303C20.0007 16.7919 19.8414 17.2674 19.5469 17.6577C19.2525 18.048 18.8389 18.3317 18.3688 18.466L17.0488 18.843C16.8199 18.9122 16.5796 18.9351 16.3418 18.9105C16.1039 18.8859 15.8734 18.8143 15.6635 18.6997C15.4536 18.5852 15.2686 18.43 15.1193 18.2433C14.9699 18.0566 14.8592 17.842 14.7936 17.6121C14.7279 17.3822 14.7086 17.1416 14.7369 16.9041C14.7651 16.6667 14.8403 16.4373 14.958 16.2292C15.0758 16.0211 15.2337 15.8385 15.4227 15.692C15.6117 15.5455 15.8279 15.4381 16.0588 15.376L18.3688 14.716C18.8389 14.5817 19.2525 14.298 19.5469 13.9077C19.8414 13.5174 20.0007 13.0419 20.0008 12.553ZM20.0008 12.553V2.25L9.50081 5.25V15.553M9.50081 15.553V19.303C9.50071 19.7919 9.34137 20.2674 9.04691 20.6577C8.75246 21.048 8.3389 21.3317 7.86881 21.466L6.54881 21.843C6.09166 21.966 5.60448 21.9043 5.19246 21.6711C4.78043 21.438 4.47663 21.0522 4.34664 20.597C4.21666 20.1418 4.27092 19.6537 4.49772 19.2382C4.72451 18.8226 5.10564 18.5129 5.55881 18.376L7.86881 17.716C8.3389 17.5817 8.75246 17.298 9.04691 16.9077C9.34137 16.5174 9.50071 16.0419 9.50081 15.553Z" stroke="#091D37" stroke-linecap="round" stroke-linejoin="round"/>
</svg>
