<svg xmlns="http://www.w3.org/2000/svg" version="1.1" xmlns:xlink="http://www.w3.org/1999/xlink" width="20" height="20" x="0" y="0" viewBox="0 0 512.097 512.097" style="enable-background:new 0 0 512 512" xml:space="preserve" class=""><g><path d="M277.099 328.366c-9.801 0-17.746 7.945-17.746 17.746v62.659l-120.58-95.45a31.386 31.386 0 0 0-19.396-6.747h-57.73v-101.15h57.727c9.801 0 17.746-7.945 17.746-17.746 0-9.801-7.945-17.746-17.746-17.746H57.407c-17.253.02-31.234 14.001-31.254 31.254v109.628c.02 17.253 14.001 31.234 31.254 31.254h60.492l133.148 105.396c11.705 9.263 28.703 7.283 37.966-4.422a27.021 27.021 0 0 0 5.833-16.772v-80.157c0-9.801-7.945-17.746-17.746-17.746l-.001-.001zM506.802 481.705 431 405.904c77.752-91.53 72.233-227.413-12.686-312.336-6.961-6.899-18.198-6.849-25.097.112-6.856 6.918-6.856 18.068.001 24.985 71.481 71.481 75.724 185.5 12.575 262.027l-41.66-41.66c41.145-54.365 35.888-130.748-12.318-178.964-6.961-6.899-18.198-6.849-25.097.113-6.855 6.917-6.855 18.067 0 24.985 34.769 34.769 38.783 89.109 11.966 128.415l-43.835-43.836V85.727c.002-14.926-12.097-27.028-27.023-27.03a27.023 27.023 0 0 0-16.777 5.835l-90.099 71.32L30.295 5.198c-6.93-6.93-18.167-6.93-25.097 0s-6.93 18.167 0 25.097l259.348 259.349.006.006 217.153 217.152c6.876 6.984 18.112 7.072 25.096.196 6.984-6.876 7.072-18.112.196-25.096l-.195-.197zm-247.45-378.477v131.027l-73.135-73.135 73.135-57.892z" fill="#ffffff" opacity="1" data-original="#000000" class=""></path></g></svg>