<svg width="14" height="15" viewBox="0 0 14 15" fill="none" xmlns="http://www.w3.org/2000/svg">
<path d="M8.94141 2.60156L10.5 2L11.0742 0.46875C11.1016 0.332031 11.2383 0.25 11.375 0.25C11.4844 0.25 11.6211 0.332031 11.6484 0.46875L12.25 2L13.7812 2.60156C13.918 2.62891 14 2.76562 14 2.875C14 3.01172 13.918 3.14844 13.7812 3.17578L12.25 3.75L11.6484 5.30859C11.6211 5.41797 11.4844 5.5 11.375 5.5C11.2383 5.5 11.1016 5.41797 11.0742 5.30859L10.5 3.75L8.94141 3.17578C8.80469 3.14844 8.75 3.01172 8.75 2.875C8.75 2.76562 8.80469 2.62891 8.94141 2.60156ZM7.02734 5.39062L10.1445 6.8125C10.3086 6.89453 10.418 7.05859 10.418 7.22266C10.418 7.38672 10.3086 7.55078 10.1445 7.63281L7.02734 9.05469L5.60547 12.1719C5.52344 12.3359 5.35938 12.4453 5.19531 12.4453C5.03125 12.4453 4.86719 12.3359 4.8125 12.1719L3.36328 9.05469L0.246094 7.63281C0.0820312 7.55078 0 7.38672 0 7.22266C0 7.05859 0.0820312 6.89453 0.246094 6.8125L3.36328 5.39062L4.8125 2.27344C4.86719 2.10938 5.03125 2 5.19531 2C5.35938 2 5.52344 2.10938 5.60547 2.27344L7.02734 5.39062ZM11.0742 9.21875C11.1016 9.08203 11.2383 9 11.375 9C11.4844 9 11.6211 9.08203 11.6484 9.21875L12.25 10.75L13.7812 11.3516C13.918 11.3789 14 11.5156 14 11.625C14 11.7617 13.918 11.8984 13.7812 11.9258L12.25 12.5L11.6484 14.0586C11.6211 14.168 11.4844 14.25 11.375 14.25C11.2383 14.25 11.1016 14.168 11.0742 14.0586L10.5 12.5L8.94141 11.9258C8.80469 11.8984 8.75 11.7617 8.75 11.625C8.75 11.5156 8.80469 11.3789 8.94141 11.3516L10.5 10.75L11.0742 9.21875Z" fill="white"/>
</svg>
