<svg width="16" height="16" viewBox="0 0 16 16" fill="none" xmlns="http://www.w3.org/2000/svg">
<g clip-path="url(#clip0_97_5330)">
<path fill-rule="evenodd" clip-rule="evenodd" d="M9.25923 0.623449C8.98886 0.574103 8.7318 0.755578 8.68369 1.02749C8.63546 1.29939 8.81508 1.55849 9.08471 1.60735C12.1604 2.16003 14.3924 4.84877 14.3924 8.00009C14.3924 11.1514 12.1604 13.8401 9.08503 14.3928C8.81553 14.4414 8.63592 14.7009 8.68401 14.9727C8.72689 15.2148 8.93598 15.3845 9.17153 15.3845C9.20049 15.3845 9.2297 15.382 9.25929 15.3766C12.8088 14.7387 15.3845 11.6366 15.3845 8.00022C15.3845 4.3638 12.8085 1.26153 9.25929 0.623831L9.25923 0.623449ZM4.26408 2.66715C4.17769 2.72777 4.07887 2.75695 3.98116 2.75695L3.98113 2.75692C3.82439 2.75692 3.67013 2.68228 3.57342 2.54301C3.41704 2.31634 3.47236 2.00499 3.6971 1.84731C4.58291 1.22561 5.56941 0.813821 6.62998 0.62333C6.89985 0.574886 7.15741 0.755472 7.20527 1.02737C7.25339 1.29914 7.07352 1.55902 6.80402 1.60723C5.88579 1.77219 5.03116 2.12875 4.26408 2.66715ZM1.11199 7.26339C1.08302 7.26339 1.05369 7.26089 1.02423 7.2555L1.02419 7.2555C0.754334 7.20703 0.574837 6.94754 0.623067 6.67577C0.812378 5.60697 1.22111 4.61268 1.83792 3.72085C1.99468 3.49454 2.30344 3.43844 2.52843 3.59661C2.75343 3.75416 2.8085 4.06564 2.65175 4.29257C2.11735 5.06516 1.76346 5.92582 1.59951 6.85159C1.55699 7.09344 1.3478 7.26339 1.11199 7.26339ZM6.80414 14.3927C5.88578 14.2278 5.03129 13.871 4.26421 13.3328C4.03946 13.1746 3.73045 13.2307 3.57369 13.457C3.41719 13.6837 3.47238 13.995 3.69738 14.1527C4.5828 14.7744 5.56968 15.186 6.63026 15.3767C6.65972 15.3821 6.68905 15.3846 6.71802 15.3846C6.95383 15.3846 7.16302 15.2146 7.20554 14.9728C7.25352 14.7006 7.07402 14.4411 6.80416 14.3927L6.80414 14.3927ZM1.02427 8.74501C1.29351 8.69631 1.55133 8.87715 1.59956 9.14905H1.5996C1.7633 10.0748 2.11757 10.9355 2.65171 11.7083C2.80822 11.9346 2.75315 12.2463 2.5284 12.404C2.44176 12.4646 2.34294 12.4938 2.24523 12.4938C2.08848 12.4938 1.93446 12.4192 1.83787 12.2798C1.22081 11.388 0.812091 10.3937 0.623021 9.32487C0.574906 9.0531 0.754773 8.79322 1.02427 8.74501ZM9.93479 7.24251C10.2065 7.4007 10.3689 7.68385 10.3689 7.99996L10.3689 7.99991C10.3689 8.316 10.2067 8.59919 9.93508 8.75749L7.31854 10.2794C7.18266 10.3582 7.03337 10.3978 6.88445 10.3978C6.73552 10.3978 6.58623 10.3582 6.45036 10.279C6.17887 10.1208 6.01653 9.8377 6.01653 9.52185V6.47777C6.01653 6.16193 6.17888 5.87875 6.45036 5.72057C6.72209 5.56239 7.04677 5.56214 7.31825 5.72032L9.93479 7.24251ZM7.00875 6.69435V9.3056L9.25309 7.99999L7.00875 6.69435Z" fill="#69717A"/>
</g>
<defs>
<clipPath id="clip0_97_5330">
<rect width="16" height="16" fill="white"/>
</clipPath>
</defs>
</svg>
