<svg width="16" height="16" viewBox="0 0 16 16" fill="none" xmlns="http://www.w3.org/2000/svg">
<path d="M0.5 7C0.21875 7 0 6.78125 0 6.5C0 6.21875 0.21875 6 0.5 6H8.5C8.75 6 9 6.21875 9 6.5C9 6.75 8.75 7 8.5 7H0.5ZM0.5 3C0.21875 3 0 2.78125 0 2.5C0 2.25 0.21875 2 0.5 2H8.5C8.75 2 9 2.25 9 2.5C9 2.78125 8.75 3 8.5 3H0.5ZM4.5 10C4.75 10 5 10.25 5 10.5C5 10.75 4.75 11 4.5 11H0.5C0.21875 11 0 10.75 0 10.5C0 10.2188 0.21875 10 0.5 10H4.5ZM15.5625 0.21875C15.8438 0.40625 16 0.6875 16 1V3.96875C16 4.375 15.7188 4.78125 15.3125 4.875L12 6V13.5C12 14.9062 10.4062 16 8.5 16C6.5625 16 5 14.9062 5 13.5C5 12.125 6.5625 11 8.5 11C9.46875 11 10.3438 11.3125 11 11.7812V2C11 1.5625 11.25 1.1875 11.6562 1.0625L14.6875 0.0625C14.7812 0.03125 14.875 0 15 0C15.1875 0.03125 15.4062 0.09375 15.5625 0.21875ZM8.5 15C9.96875 15 11 14.2188 11 13.5C11 12.8125 9.96875 12 8.5 12C7 12 6 12.7812 6 13.5C6 14.1875 7 15 8.5 15ZM15 3.96875V1L11.9688 2L12 2.03125V4.96875L15 3.96875Z" fill="#091D37"/>
</svg>
