<svg width="16" height="16" viewBox="0 0 16 16" fill="none" xmlns="http://www.w3.org/2000/svg">
<path d="M10.2083 7.5C10.2083 7.79954 9.96567 8.04167 9.66667 8.04167H8.04167V9.66667C8.04167 9.96621 7.799 10.2083 7.5 10.2083C7.201 10.2083 6.95833 9.96621 6.95833 9.66667V8.04167H5.33333C5.03433 8.04167 4.79167 7.79954 4.79167 7.5C4.79167 7.20046 5.03433 6.95833 5.33333 6.95833H6.95833V5.33333C6.95833 5.03379 7.201 4.79167 7.5 4.79167C7.799 4.79167 8.04167 5.03379 8.04167 5.33333V6.95833H9.66667C9.96567 6.95833 10.2083 7.20046 10.2083 7.5ZM14 3.70833V11.2917C14 12.785 12.785 14 11.2917 14H3.70833C2.21496 14 1 12.785 1 11.2917V3.70833C1 2.21496 2.21496 1 3.70833 1H11.2917C12.785 1 14 2.21496 14 3.70833ZM12.9167 3.70833C12.9167 2.81242 12.1876 2.08333 11.2917 2.08333H3.70833C2.81242 2.08333 2.08333 2.81242 2.08333 3.70833V11.2917C2.08333 12.1876 2.81242 12.9167 3.70833 12.9167H11.2917C12.1876 12.9167 12.9167 12.1876 12.9167 11.2917V3.70833Z" fill="#091D37"/>
</svg>
