<svg xmlns="http://www.w3.org/2000/svg" width="24" height="24" viewBox="0 0 24 24" fill="none">
<path d="M6.29461 5.28955C5.72471 5.87252 5.24026 6.47765 4.82977 7.18433C4.30494 8.06895 3.95141 9.04005 3.74025 10.0465L2.85003 8.85974C2.60174 8.52832 2.13153 8.46057 1.80047 8.70996C1.46869 8.95825 1.4013 9.42847 1.65033 9.75989L3.66742 12.4493C3.92801 12.7612 4.37773 12.848 4.71698 12.5991L7.40643 10.582C7.73822 10.3337 7.8056 9.86353 7.55658 9.5321C7.30755 9.20105 6.83807 9.13293 6.50702 9.38232L5.20408 10.3594C5.3817 9.51077 5.6797 8.6917 6.12323 7.94385C8.67098 3.48778 15.078 2.67594 18.6608 6.3501C21.7758 9.46509 21.7758 14.5334 18.6616 17.6477C15.5429 20.7583 10.4709 20.7579 7.35516 17.6481C6.83441 17.1277 6.38983 16.5381 6.03387 15.8954C5.83319 15.5328 5.37542 15.4014 5.01434 15.6031C4.65179 15.8038 4.52069 16.2601 4.72137 16.6227C5.14544 17.3877 5.67498 18.0897 6.29535 18.7097C8.14618 20.5562 10.5764 21.4794 13.008 21.4794C15.4389 21.4794 17.8705 20.5558 19.7214 18.709C21.5136 16.9171 22.5002 14.5342 22.5002 11.9993C22.5002 9.46436 21.5136 7.08142 19.7206 5.28882C16.0197 1.59705 9.99701 1.59558 6.29461 5.28955Z" fill="#091D37"/>
</svg>