<svg width="16" height="16" viewBox="0 0 16 16" fill="none" xmlns="http://www.w3.org/2000/svg">
<g clip-path="url(#clip0_4034_18290)">
<path d="M8 0.75C4 0.75 0.75 4 0.75 8C0.75 12 4 15.25 8 15.25C9.9375 15.25 11.7625 14.5 13.1125 13.1375L13.125 13.125V14.05C13.125 14.2625 13.2875 14.425 13.5 14.425C13.7125 14.425 13.875 14.2625 13.875 14.05V12.2625C13.875 12.05 13.7125 11.8875 13.5 11.8875H11.7C11.4875 11.8875 11.325 12.05 11.325 12.2625C11.325 12.475 11.4875 12.6375 11.7 12.6375H12.5375C11.325 13.8375 9.7125 14.5 8 14.5C4.4125 14.5 1.5 11.5875 1.5 8C1.5 4.4125 4.4125 1.5 8 1.5C11.5875 1.5 14.5 4.4125 14.5 8C14.5 8.2125 14.6625 8.375 14.875 8.375C15.0875 8.375 15.25 8.2125 15.25 8C15.25 4 11.9875 0.75 8 0.75Z" fill="#091D37"/>
</g>
<circle cx="8.0013" cy="7.99935" r="1.33333" fill="#091D37"/>
<defs>
<clipPath id="clip0_4034_18290">
<rect width="16" height="16" fill="white"/>
</clipPath>
</defs>
</svg>
