<svg width="3" height="6" viewBox="0 0 3 6" fill="none" xmlns="http://www.w3.org/2000/svg">
<path fill-rule="evenodd" clip-rule="evenodd" d="M0.101626 5.89029C0.0392198 5.82002 0.00416167 5.72472 0.00416167 5.62536C0.00416166 5.526 0.0392198 5.43071 0.101626 5.36044L2.19648 3.00234L0.101626 0.644248C0.0698321 0.609681 0.0444719 0.568332 0.0270256 0.522615C0.00957937 0.476899 0.000396415 0.427728 1.23229e-05 0.377973C-0.000371769 0.328218 0.00805092 0.278877 0.0247888 0.232825C0.0415266 0.186774 0.0662445 0.144936 0.0975001 0.109752C0.128756 0.0745687 0.165923 0.0467448 0.206834 0.0279035C0.247744 0.00906228 0.291578 -0.000418199 0.335779 1.42904e-05C0.379979 0.00044678 0.423661 0.0107841 0.464274 0.0304227C0.504888 0.0500612 0.54162 0.0786071 0.572328 0.114397L2.90254 2.73742C2.96494 2.80769 3 2.90298 3 3.00234C3 3.1017 2.96494 3.197 2.90254 3.26727L0.572328 5.89029C0.509903 5.96054 0.425247 6 0.336977 6C0.248708 6 0.164052 5.96054 0.101626 5.89029Z" fill="#334266"/>
</svg>