<svg width="12" height="12" viewBox="0 0 12 12" fill="none" xmlns="http://www.w3.org/2000/svg">
<path d="M7.12969 1.62377C7.54409 1.73072 7.93554 1.8949 8.29498 2.10748C8.29498 2.10748 8.46816 1.93425 8.66266 1.73974C8.8039 1.59837 8.99555 1.51908 9.19533 1.51908C9.39487 1.51908 9.58657 1.59837 9.72778 1.73974C9.89911 1.91109 10.0889 2.10087 10.2602 2.27222C10.4016 2.41343 10.4809 2.6051 10.4809 2.80467C10.4809 3.00445 10.4016 3.1961 10.2602 3.33731C10.0657 3.53182 9.89252 3.70502 9.89252 3.70502C10.1051 4.06446 10.2693 4.45589 10.3762 4.87031H10.8953C11.3112 4.87031 11.6484 5.20753 11.6484 5.62343V6.37657C11.6484 6.79247 11.3112 7.12969 10.8953 7.12969H10.3762C10.2693 7.54409 10.1051 7.93554 9.89252 8.29495C9.89252 8.29495 10.0657 8.46818 10.2602 8.66266C10.4016 8.8039 10.4809 8.99555 10.4809 9.19533C10.4809 9.3949 10.4016 9.58657 10.2602 9.72778C10.0889 9.89911 9.89911 10.0889 9.72778 10.2602C9.58657 10.4016 9.39487 10.4809 9.19533 10.4809C8.99555 10.4809 8.8039 10.4016 8.66266 10.2602C8.46816 10.0657 8.29498 9.89252 8.29498 9.89252C7.93554 10.1051 7.54409 10.2693 7.12969 10.3762V10.8953C7.12969 11.3112 6.79247 11.6484 6.37655 11.6484H5.62343C5.20751 11.6484 4.87031 11.3112 4.87031 10.8953V10.3762C4.45591 10.2693 4.06446 10.1051 3.70502 9.89252C3.70502 9.89252 3.53182 10.0657 3.33731 10.2602C3.1961 10.4016 3.00443 10.4809 2.80467 10.4809C2.6051 10.4809 2.41341 10.4016 2.27222 10.2602C2.10089 10.0889 1.91109 9.89911 1.73974 9.72778C1.59837 9.58657 1.51908 9.3949 1.51908 9.19533C1.51908 8.99555 1.59837 8.8039 1.73974 8.66266C1.93425 8.46818 2.10748 8.29495 2.10748 8.29495C1.8949 7.93554 1.73074 7.54409 1.62377 7.12969H1.1047C0.688781 7.12969 0.351562 6.79247 0.351562 6.37657V5.62343C0.351562 5.20753 0.688781 4.87031 1.1047 4.87031H1.62377C1.73074 4.45589 1.8949 4.06446 2.10748 3.70502C2.10748 3.70502 1.93425 3.53182 1.73974 3.33731C1.59837 3.1961 1.51908 3.00445 1.51908 2.80467C1.51908 2.6051 1.59837 2.41343 1.73974 2.27222C1.91109 2.10087 2.10089 1.91109 2.27222 1.73974C2.41341 1.59837 2.6051 1.51908 2.80467 1.51908C3.00443 1.51908 3.1961 1.59837 3.33731 1.73974C3.53182 1.93425 3.70502 2.10748 3.70502 2.10748C4.06446 1.8949 4.45591 1.73072 4.87031 1.62377V1.10468C4.87031 0.688759 5.20751 0.351563 5.62343 0.351563H6.37655C6.79247 0.351563 7.12969 0.688759 7.12969 1.10468V1.62377Z" stroke="#334266" stroke-miterlimit="10" stroke-linecap="round" stroke-linejoin="round"/>
<path d="M5.99998 3.74053C7.24697 3.74053 8.25935 4.75291 8.25935 5.9999C8.25935 7.24687 7.24697 8.25928 5.99998 8.25928C4.75298 8.25928 3.7406 7.24687 3.7406 5.9999C3.7406 4.75291 4.75298 3.74053 5.99998 3.74053Z" stroke="#334266" stroke-miterlimit="10" stroke-linecap="round" stroke-linejoin="round"/>
</svg>
