<svg width="25" height="24" viewBox="0 0 25 24" fill="none" xmlns="http://www.w3.org/2000/svg">
<path d="M10.844 3.94C10.934 3.398 11.404 3 11.954 3H13.047C13.597 3 14.067 3.398 14.157 3.94L14.306 4.834C14.376 5.258 14.69 5.598 15.086 5.764C15.484 5.928 15.941 5.906 16.291 5.656L17.028 5.129C17.2448 4.97405 17.5095 4.90107 17.775 4.92305C18.0405 4.94502 18.2897 5.06053 18.478 5.249L19.251 6.023C19.641 6.412 19.691 7.025 19.371 7.473L18.844 8.21C18.594 8.56 18.572 9.016 18.737 9.414C18.902 9.811 19.242 10.124 19.667 10.194L20.56 10.344C21.103 10.434 21.5 10.904 21.5 11.453V12.547C21.5 13.097 21.103 13.567 20.56 13.657L19.667 13.806C19.242 13.876 18.902 14.189 18.737 14.586C18.572 14.984 18.594 15.44 18.844 15.79L19.371 16.528C19.691 16.975 19.64 17.588 19.251 17.978L18.477 18.751C18.2887 18.9392 18.0398 19.0546 17.7745 19.0765C17.5092 19.0985 17.2447 19.0257 17.028 18.871L16.29 18.344C15.94 18.094 15.484 18.072 15.087 18.237C14.69 18.402 14.377 18.742 14.306 19.166L14.157 20.06C14.067 20.602 13.597 21 13.047 21H11.953C11.403 21 10.934 20.602 10.843 20.06L10.695 19.166C10.624 18.742 10.311 18.402 9.914 18.236C9.516 18.072 9.06 18.094 8.71 18.344L7.972 18.871C7.525 19.191 6.912 19.14 6.522 18.751L5.749 17.977C5.56053 17.7887 5.44502 17.5395 5.42305 17.274C5.40107 17.0085 5.47405 16.7438 5.629 16.527L6.156 15.79C6.406 15.44 6.429 14.984 6.264 14.586C6.099 14.189 5.759 13.876 5.334 13.806L4.44 13.656C3.898 13.566 3.5 13.096 3.5 12.547V11.453C3.5 10.903 3.898 10.433 4.44 10.343L5.334 10.194C5.758 10.124 6.099 9.811 6.264 9.414C6.429 9.016 6.407 8.56 6.157 8.21L5.63 7.472C5.47505 7.25524 5.40207 6.99053 5.42405 6.72499C5.44602 6.45945 5.56153 6.21034 5.75 6.022L6.523 5.249C6.71134 5.06053 6.96045 4.94502 7.22599 4.92305C7.49153 4.90107 7.75624 4.97405 7.973 5.129L8.71 5.656C9.06 5.906 9.517 5.928 9.914 5.763C10.311 5.598 10.624 5.258 10.694 4.834L10.844 3.94Z" stroke="#091D37" stroke-linecap="round" stroke-linejoin="round"/>
<path d="M15.5 12C15.5 12.7956 15.1839 13.5587 14.6213 14.1213C14.0587 14.6839 13.2956 15 12.5 15C11.7044 15 10.9413 14.6839 10.3787 14.1213C9.81607 13.5587 9.5 12.7956 9.5 12C9.5 11.2044 9.81607 10.4413 10.3787 9.87868C10.9413 9.31607 11.7044 9 12.5 9C13.2956 9 14.0587 9.31607 14.6213 9.87868C15.1839 10.4413 15.5 11.2044 15.5 12Z" stroke="#091D37" stroke-linecap="round" stroke-linejoin="round"/>
</svg>
