<svg width="17" height="16" viewBox="0 0 17 16" fill="none" xmlns="http://www.w3.org/2000/svg">
<path d="M5.75 8C5.75 6.5 6.96875 5.25 8.5 5.25C10 5.25 11.25 6.5 11.25 8C11.25 9.53125 10 10.75 8.5 10.75C6.96875 10.75 5.75 9.53125 5.75 8ZM8.5 6.25C7.53125 6.25 6.75 7.0625 6.75 8C6.75 8.96875 7.53125 9.75 8.5 9.75C9.4375 9.75 10.25 8.96875 10.25 8C10.25 7.0625 9.4375 6.25 8.5 6.25ZM2.53125 7.21875L1.28125 6.0625C0.9375 5.75 0.84375 5.25 1.09375 4.84375L2.03125 3.1875C2.25 2.78125 2.75 2.59375 3.1875 2.75L4.8125 3.25C5.25 2.9375 5.71875 2.65625 6.1875 2.46875L6.5625 0.8125C6.65625 0.34375 7.0625 0 7.53125 0H9.4375C9.90625 0 10.3125 0.34375 10.4062 0.8125L10.7812 2.46875C11.25 2.65625 11.7188 2.9375 12.1562 3.25L13.7812 2.75C14.2188 2.59375 14.7188 2.78125 14.9375 3.1875L15.875 4.84375C16.125 5.25 16.0312 5.75 15.6875 6.0625L14.4375 7.21875C14.4688 7.46875 14.5 7.75 14.5 8C14.5 8.28125 14.4688 8.5625 14.4375 8.8125L15.6875 9.96875C16.0312 10.2812 16.125 10.7812 15.875 11.1875L14.9375 12.8438C14.7188 13.25 14.2188 13.4375 13.7812 13.2812L12.1562 12.7812C11.7188 13.0938 11.25 13.3438 10.7812 13.5625L10.4062 15.2188C10.3125 15.6875 9.90625 16 9.4375 16H7.53125C7.0625 16 6.65625 15.6875 6.5625 15.2188L6.1875 13.5625C5.71875 13.3438 5.25 13.0938 4.8125 12.7812L3.1875 13.2812C2.75 13.4375 2.25 13.25 2.03125 12.8438L1.09375 11.1875C0.84375 10.7812 0.9375 10.2812 1.28125 9.96875L2.53125 8.8125C2.5 8.5625 2.5 8.28125 2.5 8C2.5 7.75 2.5 7.46875 2.53125 7.21875ZM5.4375 4.0625L5.03125 4.375L2.90625 3.6875L1.9375 5.34375L3.59375 6.84375L3.53125 7.34375C3.5 7.5625 3.5 7.78125 3.5 8C3.5 8.25 3.5 8.46875 3.53125 8.6875L3.59375 9.1875L1.9375 10.6875L2.90625 12.3438L5.03125 11.6562L5.4375 11.9688C5.78125 12.25 6.15625 12.4688 6.59375 12.625L7.0625 12.8438L7.53125 15H9.4375L9.90625 12.8438L10.375 12.625C10.8125 12.4688 11.1875 12.25 11.5312 11.9688L11.9375 11.6562L14.0625 12.3438L15.0312 10.6875L13.375 9.1875L13.4375 8.6875C13.4688 8.46875 13.5 8.25 13.5 8C13.5 7.78125 13.4688 7.5625 13.4375 7.34375L13.375 6.84375L15.0312 5.34375L14.0625 3.6875L11.9375 4.375L11.5312 4.0625C11.1875 3.78125 10.8125 3.5625 10.375 3.375L9.90625 3.1875L9.4375 1H7.53125L7.0625 3.1875L6.59375 3.375C6.15625 3.5625 5.78125 3.78125 5.4375 4.0625Z" fill="#091D37"/>
</svg>
