<svg width="16" height="13" viewBox="0 0 16 13" fill="none" xmlns="http://www.w3.org/2000/svg">
<path d="M6.78125 6.92188C6.92188 6.89844 7.08594 6.875 7.25 6.875H8.75C8.89062 6.875 9.05469 6.89844 9.19531 6.92188C9.21875 6.94531 9.24219 6.94531 9.26562 6.94531C9.82812 7.08594 10.2969 7.41406 10.6016 7.88281C10.625 7.92969 10.6719 7.97656 10.6953 8C10.8828 8.35156 11 8.72656 11 9.125C11 9.54688 10.6484 9.875 10.25 9.875H5.75C5.32812 9.875 5 9.54688 5 9.125C5 8.72656 5.09375 8.35156 5.28125 8C5.58594 7.48438 6.10156 7.08594 6.71094 6.94531C6.73438 6.94531 6.75781 6.94531 6.78125 6.92188ZM9.80469 8.75C9.64062 8.32812 9.21875 8 8.75 8H7.25C6.75781 8 6.33594 8.32812 6.17188 8.75H9.80469ZM6.3125 4.4375C6.3125 3.52344 7.0625 2.75 8 2.75C8.91406 2.75 9.6875 3.52344 9.6875 4.4375C9.6875 4.97656 9.42969 5.46875 9.03125 5.77344C8.9375 5.84375 8.84375 5.91406 8.75 5.96094C8.51562 6.07812 8.25781 6.125 8 6.125C7.71875 6.125 7.46094 6.07812 7.25 5.96094C7.13281 5.91406 7.03906 5.84375 6.94531 5.77344C6.54688 5.46875 6.3125 4.97656 6.3125 4.4375ZM8 5C8.30469 5 8.5625 4.76562 8.5625 4.4375C8.5625 4.13281 8.30469 3.875 8 3.875C7.67188 3.875 7.4375 4.13281 7.4375 4.4375C7.4375 4.76562 7.67188 5 8 5ZM5.72656 4.25C5.72656 4.88281 5.23438 5.375 4.60156 5.375C3.99219 5.375 3.47656 4.88281 3.47656 4.25C3.47656 3.64062 3.99219 3.125 4.60156 3.125C5.23438 3.125 5.72656 3.64062 5.72656 4.25ZM2.75 7.39062C2.75 6.6875 3.28906 6.125 3.99219 6.125H5.60938C5.84375 6.125 6.05469 6.19531 6.24219 6.3125C5.42188 6.59375 4.78906 7.22656 4.46094 8H3.35938C3.00781 8 2.75 7.74219 2.75 7.39062ZM9.73438 6.3125C9.92188 6.19531 10.1328 6.125 10.3672 6.125H11.9844C12.6875 6.125 13.25 6.6875 13.25 7.39062C13.25 7.74219 12.9688 8 12.6172 8H11.5156C11.1875 7.22656 10.5547 6.59375 9.73438 6.3125ZM12.5 4.25C12.5 4.88281 11.9844 5.375 11.375 5.375C10.7422 5.375 10.25 4.88281 10.25 4.25C10.25 3.64062 10.7422 3.125 11.375 3.125C11.9844 3.125 12.5 3.64062 12.5 4.25ZM13.4375 0.5C14.5625 0.5 15.5 1.4375 15.5 2.5625V10.4375C15.5 11.5859 14.5625 12.5 13.4375 12.5H2.5625C1.41406 12.5 0.5 11.5859 0.5 10.4375V2.5625C0.5 1.4375 1.41406 0.5 2.5625 0.5H13.4375ZM1.625 10.4375C1.625 10.9766 2.02344 11.375 2.5625 11.375H13.4375C13.9531 11.375 14.375 10.9766 14.375 10.4375V2.5625C14.375 2.04688 13.9531 1.625 13.4375 1.625H2.5625C2.02344 1.625 1.625 2.04688 1.625 2.5625V10.4375Z" fill="#1A2849"/>
</svg>
