<svg width="24" height="24" viewBox="0 0 24 24" fill="none" xmlns="http://www.w3.org/2000/svg">
<path d="M8 8.42188C8 8.30999 8.04515 8.20268 8.12553 8.12356C8.2059 8.04445 8.31491 8 8.42857 8H15.5714C15.6851 8 15.7941 8.04445 15.8745 8.12356C15.9548 8.20268 16 8.30999 16 8.42188V9.54688C16 9.65876 15.9548 9.76607 15.8745 9.84519C15.7941 9.9243 15.6851 9.96875 15.5714 9.96875C15.4578 9.96875 15.3488 9.9243 15.2684 9.84519C15.188 9.76607 15.1429 9.65876 15.1429 9.54688V8.84375H12.4286V16.1562H13.2857C13.3994 16.1562 13.5084 16.2007 13.5888 16.2798C13.6691 16.3589 13.7143 16.4662 13.7143 16.5781C13.7143 16.69 13.6691 16.7973 13.5888 16.8764C13.5084 16.9556 13.3994 17 13.2857 17H10.7143C10.6006 17 10.4916 16.9556 10.4112 16.8764C10.3309 16.7973 10.2857 16.69 10.2857 16.5781C10.2857 16.4662 10.3309 16.3589 10.4112 16.2798C10.4916 16.2007 10.6006 16.1562 10.7143 16.1562H11.5714V8.84375H8.85714V9.54688C8.85714 9.65876 8.81199 9.76607 8.73162 9.84519C8.65124 9.9243 8.54224 9.96875 8.42857 9.96875C8.31491 9.96875 8.2059 9.9243 8.12553 9.84519C8.04515 9.76607 8 9.65876 8 9.54688V8.42188Z" fill="#091D37"/>
<rect x="2.5" y="4.5" width="19" height="15" rx="1.5" stroke="#091D37"/>
</svg>
