<svg width="15" height="15" viewBox="0 0 15 15" fill="none" xmlns="http://www.w3.org/2000/svg">
<path d="M1.33398 3.33399C1.33398 2.39118 1.33398 1.91977 1.62688 1.62688C1.91977 1.33398 2.39118 1.33398 3.33398 1.33398H8.22287C9.16568 1.33398 9.63709 1.33398 9.92998 1.62688C10.2229 1.91977 10.2229 2.39118 10.2229 3.33398V8.22287C10.2229 9.16568 10.2229 9.63709 9.92998 9.92998C9.63709 10.2229 9.16568 10.2229 8.22287 10.2229H3.33399C2.39118 10.2229 1.91977 10.2229 1.62688 9.92998C1.33398 9.63709 1.33398 9.16568 1.33398 8.22287V3.33399Z" stroke="#091D37"/>
<path fill-rule="evenodd" clip-rule="evenodd" d="M13.9298 5.62688C14.2227 5.91977 14.2227 6.39118 14.2227 7.33398V12.2229C14.2227 13.1657 14.2227 13.6371 13.9298 13.93C13.6369 14.2229 13.1655 14.2229 12.2227 14.2229H7.33377C6.39096 14.2229 5.91955 14.2229 5.62666 13.93C5.33377 13.6371 5.33377 13.1657 5.33377 12.2229V7.33398C5.33377 6.39118 5.33377 5.91977 5.62666 5.62688C5.91955 5.33398 6.39096 5.33398 7.33377 5.33398H12.2227C13.1655 5.33398 13.6369 5.33398 13.9298 5.62688Z" fill="white"/>
<path d="M13.9298 13.93L13.5762 13.5764L13.5762 13.5764L13.9298 13.93ZM5.62666 13.93L5.98021 13.5764L5.98021 13.5764L5.62666 13.93ZM5.62666 5.62688L5.98021 5.98043L5.98021 5.98043L5.62666 5.62688ZM14.7227 8.55621V9.05621H13.7227V8.55621H14.7227ZM13.7227 11.0007V10.5007H14.7227V11.0007H13.7227ZM14.7212 12.6718L14.7158 13.1717L13.7158 13.1609L13.7212 12.6609L14.7212 12.6718ZM13.6594 13.4142L13.7919 12.932L14.7562 13.197L14.6237 13.6791L13.6594 13.4142ZM13.6789 14.6239L13.1968 14.7564L12.9318 13.7921L13.4139 13.6597L13.6789 14.6239ZM12.6607 13.7214L13.1607 13.716L13.1715 14.716L12.6715 14.7214L12.6607 13.7214ZM11.0004 14.7229H10.5004V13.7229H11.0004V14.7229ZM8.55599 13.7229H9.05599V14.7229H8.55599V13.7229ZM6.88488 14.7214L6.38491 14.716L6.39573 13.716L6.8957 13.7214L6.88488 14.7214ZM6.14248 13.6597L6.6246 13.7921L6.35964 14.7564L5.87751 14.6239L6.14248 13.6597ZM4.93272 13.6791L4.80024 13.197L5.7645 12.932L5.89698 13.4142L4.93272 13.6791ZM5.8352 12.6609L5.84061 13.1609L4.84067 13.1717L4.83526 12.6718L5.8352 12.6609ZM4.83377 11.0007V10.5007H5.83377V11.0007H4.83377ZM5.83377 8.55621V9.05621H4.83377V8.55621H5.83377ZM4.83526 6.8851L4.84067 6.38513L5.84061 6.39595L5.8352 6.89592L4.83526 6.8851ZM5.89698 6.14269L5.7645 6.62482L4.80024 6.35986L4.93272 5.87773L5.89698 6.14269ZM5.87751 4.93294L6.35964 4.80046L6.6246 5.76471L6.14248 5.8972L5.87751 4.93294ZM6.8957 5.83542L6.39573 5.84083L6.38491 4.84089L6.88488 4.83547L6.8957 5.83542ZM8.55599 4.83398H9.05599V5.83398H8.55599V4.83398ZM11.0004 5.83398H10.5004V4.83398H11.0004V5.83398ZM12.6715 4.83547L13.1715 4.84089L13.1607 5.84083L12.6607 5.83542L12.6715 4.83547ZM13.4139 5.8972L12.9318 5.76471L13.1968 4.80046L13.6789 4.93294L13.4139 5.8972ZM14.6237 5.87773L14.7562 6.35986L13.7919 6.62482L13.6594 6.14269L14.6237 5.87773ZM13.7212 6.89592L13.7158 6.39595L14.7158 6.38513L14.7212 6.8851L13.7212 6.89592ZM14.7227 7.33398V8.55621H13.7227V7.33398H14.7227ZM14.7227 11.0007V12.2229H13.7227V11.0007H14.7227ZM14.7227 12.2229C14.7227 12.3833 14.7227 12.5335 14.7212 12.6718L13.7212 12.6609C13.7227 12.5291 13.7227 12.3847 13.7227 12.2229H14.7227ZM14.6237 13.6791C14.5621 13.9032 14.4581 14.1087 14.2833 14.2835L13.5762 13.5764C13.6054 13.5472 13.6343 13.5055 13.6594 13.4142L14.6237 13.6791ZM14.2833 14.2835C14.1085 14.4584 13.9029 14.5624 13.6789 14.6239L13.4139 13.6597C13.5053 13.6346 13.547 13.6056 13.5762 13.5764L14.2833 14.2835ZM12.6715 14.7214C12.5333 14.7229 12.3831 14.7229 12.2227 14.7229V13.7229C12.3844 13.7229 12.5289 13.7229 12.6607 13.7214L12.6715 14.7214ZM12.2227 14.7229H11.0004V13.7229H12.2227V14.7229ZM8.55599 14.7229H7.33377V13.7229H8.55599V14.7229ZM7.33377 14.7229C7.17335 14.7229 7.02315 14.7229 6.88488 14.7214L6.8957 13.7214C7.02751 13.7229 7.17198 13.7229 7.33377 13.7229V14.7229ZM5.87751 14.6239C5.65349 14.5624 5.44792 14.4584 5.27311 14.2835L5.98021 13.5764C6.0094 13.6056 6.05114 13.6346 6.14248 13.6597L5.87751 14.6239ZM5.27311 14.2835C5.09829 14.1087 4.99428 13.9032 4.93272 13.6791L5.89698 13.4142C5.92208 13.5055 5.95102 13.5472 5.98021 13.5764L5.27311 14.2835ZM4.83526 12.6718C4.83376 12.5335 4.83377 12.3833 4.83377 12.2229H5.83377C5.83377 12.3847 5.83377 12.5291 5.8352 12.6609L4.83526 12.6718ZM4.83377 12.2229V11.0007H5.83377V12.2229H4.83377ZM4.83377 8.55621V7.33398H5.83377V8.55621H4.83377ZM4.83377 7.33398C4.83377 7.17357 4.83376 7.02336 4.83526 6.8851L5.8352 6.89592C5.83377 7.02772 5.83377 7.1722 5.83377 7.33398H4.83377ZM4.93272 5.87773C4.99428 5.65371 5.09829 5.44814 5.27311 5.27332L5.98021 5.98043C5.95102 6.00962 5.92208 6.05136 5.89698 6.14269L4.93272 5.87773ZM5.27311 5.27332C5.44792 5.09851 5.65349 4.9945 5.87751 4.93294L6.14248 5.8972C6.05114 5.92229 6.0094 5.95124 5.98021 5.98043L5.27311 5.27332ZM6.88488 4.83547C7.02315 4.83398 7.17335 4.83398 7.33377 4.83398V5.83398C7.17198 5.83398 7.02751 5.83399 6.8957 5.83542L6.88488 4.83547ZM7.33377 4.83398H8.55599V5.83398H7.33377V4.83398ZM11.0004 4.83398H12.2227V5.83398H11.0004V4.83398ZM12.2227 4.83398C12.3831 4.83398 12.5333 4.83398 12.6715 4.83547L12.6607 5.83542C12.5289 5.83399 12.3844 5.83398 12.2227 5.83398V4.83398ZM13.6789 4.93294C13.9029 4.9945 14.1085 5.09851 14.2833 5.27332L13.5762 5.98043C13.547 5.95124 13.5053 5.92229 13.4139 5.8972L13.6789 4.93294ZM14.2833 5.27332C14.4581 5.44814 14.5621 5.65371 14.6237 5.87773L13.6594 6.14269C13.6343 6.05136 13.6054 6.00962 13.5762 5.98043L14.2833 5.27332ZM14.7212 6.8851C14.7227 7.02336 14.7227 7.17357 14.7227 7.33398H13.7227C13.7227 7.1722 13.7227 7.02772 13.7212 6.89592L14.7212 6.8851Z" fill="#091D37"/>
</svg>
