<svg width="15" height="15" viewBox="0 0 15 15" fill="none" xmlns="http://www.w3.org/2000/svg">
<path d="M5.33398 10.2723V9.77226H4.83398V10.2723H5.33398ZM5.62688 13.93L5.98043 13.5764L5.98043 13.5764L5.62688 13.93ZM13.93 13.93L13.5764 13.5764L13.5764 13.5764L13.93 13.93ZM13.93 5.62688L13.5764 5.98043L13.5764 5.98043L13.93 5.62688ZM10.2724 5.33398V4.83398H9.77235V5.33398H10.2724ZM9.97946 9.97936L9.62591 9.62581L9.62591 9.62581L9.97946 9.97936ZM5.83398 11.7352V11.2352H4.83398V11.7352H5.83398ZM4.83398 10.7599V11.2599H5.83398V10.7599H4.83398ZM6.06858 10.7723H6.56858V9.77226H6.06858V10.7723ZM7.53776 9.77226H7.03776V10.7723H7.53776V9.77226ZM8.72124 10.7708L9.22121 10.7654L9.21039 9.76541L8.71042 9.77082L8.72124 10.7708ZM9.46364 9.70904L8.98152 9.84153L9.24648 10.8058L9.72861 10.6733L9.46364 9.70904ZM10.6734 9.72851L10.8059 9.24638L9.84162 8.98142L9.70914 9.46355L10.6734 9.72851ZM9.77092 8.71032L9.76551 9.21029L10.7655 9.22111L10.7709 8.72114L9.77092 8.71032ZM10.7724 7.53769V7.03769H9.77235V7.53769H10.7724ZM9.77235 6.06855V6.56855H10.7724V6.06855H9.77235ZM10.76 5.83398H11.26V4.83398H10.76V5.83398ZM11.7352 4.83398H11.2352V5.83398H11.7352V4.83398ZM12.6609 5.83542L13.1609 5.84083L13.1717 4.84089L12.6718 4.83547L12.6609 5.83542ZM13.6791 4.93294L13.197 4.80046L12.932 5.76471L13.4142 5.8972L13.6791 4.93294ZM13.6597 6.14269L13.7921 6.62482L14.7564 6.35986L14.6239 5.87773L13.6597 6.14269ZM14.7214 6.8851L14.716 6.38513L13.716 6.39595L13.7214 6.89592L14.7214 6.8851ZM13.7229 8.55621V9.05621H14.7229V8.55621H13.7229ZM14.7229 11.0007V10.5007H13.7229V11.0007H14.7229ZM13.7214 12.6609L13.716 13.1609L14.716 13.1717L14.7214 12.6718L13.7214 12.6609ZM14.6239 13.6791L14.7564 13.197L13.7921 12.932L13.6597 13.4142L14.6239 13.6791ZM13.4142 13.6597L12.932 13.7921L13.197 14.7564L13.6791 14.6239L13.4142 13.6597ZM12.6718 14.7214L13.1717 14.716L13.1609 13.716L12.6609 13.7214L12.6718 14.7214ZM11.0007 13.7229H10.5007V14.7229H11.0007V13.7229ZM8.55621 14.7229H9.05621V13.7229H8.55621V14.7229ZM6.89592 13.7214L6.39595 13.716L6.38513 14.716L6.8851 14.7214L6.89592 13.7214ZM5.87773 14.6239L6.35986 14.7564L6.62482 13.7921L6.14269 13.6597L5.87773 14.6239ZM5.8972 13.4142L5.76471 12.932L4.80046 13.197L4.93294 13.6791L5.8972 13.4142ZM4.83547 12.6718L4.84089 13.1717L5.84083 13.1609L5.83542 12.6609L4.83547 12.6718ZM5.83398 12.2229V11.7352H4.83398V12.2229H5.83398ZM5.83398 10.7599V10.2723H4.83398V10.7599H5.83398ZM5.33398 10.7723H6.06858V9.77226H5.33398V10.7723ZM7.53776 10.7723H8.27235V9.77226H7.53776V10.7723ZM8.27235 10.7723C8.43277 10.7723 8.58297 10.7723 8.72124 10.7708L8.71042 9.77082C8.57861 9.77225 8.43414 9.77226 8.27235 9.77226V10.7723ZM9.72861 10.6733C9.95263 10.6117 10.1582 10.5077 10.333 10.3329L9.62591 9.62581C9.59672 9.655 9.55498 9.68395 9.46364 9.70904L9.72861 10.6733ZM10.333 10.3329C10.5078 10.1581 10.6118 9.95253 10.6734 9.72851L9.70914 9.46355C9.68404 9.55488 9.6551 9.59662 9.62591 9.62581L10.333 10.3329ZM10.7709 8.72114C10.7724 8.58288 10.7724 8.43267 10.7724 8.27226H9.77235C9.77235 8.43404 9.77235 8.57852 9.77092 8.71032L10.7709 8.72114ZM10.7724 8.27226V7.53769H9.77235V8.27226H10.7724ZM10.7724 6.06855V5.33398H9.77235V6.06855H10.7724ZM10.2724 5.83398H10.76V4.83398H10.2724V5.83398ZM11.7352 5.83398H12.2229V4.83398H11.7352V5.83398ZM12.2229 5.83398C12.3847 5.83398 12.5291 5.83399 12.6609 5.83542L12.6718 4.83547C12.5335 4.83398 12.3833 4.83398 12.2229 4.83398V5.83398ZM13.4142 5.8972C13.5055 5.92229 13.5472 5.95124 13.5764 5.98043L14.2835 5.27332C14.1087 5.09851 13.9032 4.9945 13.6791 4.93294L13.4142 5.8972ZM13.5764 5.98043C13.6056 6.00962 13.6346 6.05136 13.6597 6.14269L14.6239 5.87773C14.5624 5.65371 14.4584 5.44814 14.2835 5.27332L13.5764 5.98043ZM13.7214 6.89592C13.7229 7.02772 13.7229 7.1722 13.7229 7.33398H14.7229C14.7229 7.17357 14.7229 7.02336 14.7214 6.8851L13.7214 6.89592ZM13.7229 7.33398V8.55621H14.7229V7.33398H13.7229ZM13.7229 11.0007V12.2229H14.7229V11.0007H13.7229ZM13.7229 12.2229C13.7229 12.3847 13.7229 12.5291 13.7214 12.6609L14.7214 12.6718C14.7229 12.5335 14.7229 12.3833 14.7229 12.2229H13.7229ZM13.6597 13.4142C13.6346 13.5055 13.6056 13.5472 13.5764 13.5764L14.2835 14.2835C14.4584 14.1087 14.5624 13.9032 14.6239 13.6791L13.6597 13.4142ZM13.5764 13.5764C13.5472 13.6056 13.5055 13.6346 13.4142 13.6597L13.6791 14.6239C13.9032 14.5624 14.1087 14.4584 14.2835 14.2835L13.5764 13.5764ZM12.6609 13.7214C12.5291 13.7229 12.3847 13.7229 12.2229 13.7229V14.7229C12.3833 14.7229 12.5335 14.7229 12.6718 14.7214L12.6609 13.7214ZM12.2229 13.7229H11.0007V14.7229H12.2229V13.7229ZM8.55621 13.7229H7.33398V14.7229H8.55621V13.7229ZM7.33398 13.7229C7.1722 13.7229 7.02772 13.7229 6.89592 13.7214L6.8851 14.7214C7.02336 14.7229 7.17357 14.7229 7.33398 14.7229V13.7229ZM6.14269 13.6597C6.05136 13.6346 6.00962 13.6056 5.98043 13.5764L5.27332 14.2835C5.44814 14.4584 5.65371 14.5624 5.87773 14.6239L6.14269 13.6597ZM5.98043 13.5764C5.95124 13.5472 5.92229 13.5055 5.8972 13.4142L4.93294 13.6791C4.9945 13.9032 5.09851 14.1087 5.27332 14.2835L5.98043 13.5764ZM5.83542 12.6609C5.83399 12.5291 5.83398 12.3847 5.83398 12.2229H4.83398C4.83398 12.3833 4.83398 12.5335 4.83547 12.6718L5.83542 12.6609Z" fill="#091D37"/>
<path d="M1.33398 3.33398C1.33398 2.39118 1.33398 1.91977 1.62688 1.62688C1.91977 1.33398 2.39118 1.33398 3.33398 1.33398H8.22287C9.16568 1.33398 9.63709 1.33398 9.92998 1.62688C10.2229 1.91977 10.2229 2.39118 10.2229 3.33398V8.22287C10.2229 9.16568 10.2229 9.63709 9.92998 9.92998C9.63709 10.2229 9.16568 10.2229 8.22287 10.2229H3.33398C2.39118 10.2229 1.91977 10.2229 1.62688 9.92998C1.33398 9.63709 1.33398 9.16568 1.33398 8.22287V3.33398Z" stroke="#091D37"/>
</svg>
