<svg width="15" height="14" viewBox="0 0 15 14" fill="none" xmlns="http://www.w3.org/2000/svg">
<path d="M14.5 7C14.5 10.875 11.3438 14 7.5 14C5.3125 14 3.3125 13.0312 1.96875 11.3125C1.78125 11.0938 1.84375 10.7812 2.0625 10.625C2.28125 10.4375 2.59375 10.5 2.75 10.7188C3.90625 12.1875 5.625 13 7.5 13C10.7812 13 13.5 10.3125 13.5 7C13.5 3.71875 10.7812 1 7.5 1C5.34375 1 3.375 2.15625 2.3125 4H5C5.25 4 5.5 4.25 5.5 4.5C5.5 4.78125 5.25 5 5 5H1C0.71875 5 0.5 4.78125 0.5 4.5V0.5C0.5 0.25 0.71875 0 1 0C1.25 0 1.5 0.25 1.5 0.5V3.4375C2.75 1.3125 5 0.03125 7.5 0.03125C11.3438 0.03125 14.5 3.15625 14.5 7Z" fill="#091D37"/>
</svg>
