<svg width="17" height="21" viewBox="0 0 17 21" fill="none" xmlns="http://www.w3.org/2000/svg">
<path d="M14.4788 10.6464C14.4071 10.5697 14.3215 10.5088 14.227 10.4671C14.1326 10.4254 14.0311 10.4038 13.9285 10.4035C13.826 10.4032 13.7244 10.4242 13.6297 10.4654C13.535 10.5066 13.4491 10.567 13.377 10.6432C13.3049 10.7194 13.248 10.8099 13.2097 10.9093C13.1714 11.0087 13.1524 11.1151 13.1538 11.2223C13.1552 11.3295 13.177 11.4353 13.2179 11.5336C13.2589 11.6318 13.3181 11.7206 13.3922 11.7947C14.0478 12.469 14.5679 13.2734 14.922 14.1607C15.2762 15.0479 15.4572 16.0002 15.4545 16.9615C15.4545 17.9494 12.7454 19.3846 8.5 19.3846C4.25458 19.3846 1.54548 17.9487 1.54548 16.9599C1.54288 16.0052 1.72149 15.0593 2.07097 14.1772C2.42044 13.2951 2.93385 12.4942 3.58146 11.8208C3.6547 11.7462 3.71304 11.6571 3.75309 11.5587C3.79313 11.4603 3.81409 11.3545 3.81473 11.2476C3.81538 11.1407 3.79571 11.0347 3.75686 10.9358C3.71801 10.8369 3.66076 10.747 3.58842 10.6714C3.51609 10.5958 3.43011 10.5359 3.33547 10.4953C3.24084 10.4547 3.13943 10.4342 3.03713 10.4348C2.93483 10.4355 2.83368 10.4574 2.73955 10.4993C2.64541 10.5411 2.56016 10.6021 2.48875 10.6787C1.69703 11.5019 1.06941 12.481 0.642219 13.5595C0.215027 14.638 -0.00324611 15.7943 3.64815e-05 16.9615C3.64815e-05 19.5846 4.37906 21 8.5 21C12.6209 21 17 19.5846 17 16.9615C17.0034 15.7864 16.7821 14.6224 16.3492 13.538C15.9162 12.4535 15.2803 11.4704 14.4788 10.6464Z" fill="#334266"/>
<path d="M8.5 11.3077C9.56981 11.3077 10.6156 10.9761 11.5051 10.3548C12.3946 9.7336 13.0879 8.85059 13.4973 7.81748C13.9067 6.78438 14.0138 5.64758 13.8051 4.55084C13.5964 3.4541 13.0813 2.44668 12.3248 1.65598C11.5683 0.865271 10.6045 0.326794 9.55526 0.10864C8.506 -0.109515 7.41842 0.00244972 6.43004 0.430376C5.44166 0.858302 4.59688 1.58297 4.00252 2.51274C3.40817 3.44251 3.09093 4.53562 3.09093 5.65385C3.09259 7.15281 3.663 8.58988 4.67704 9.64981C5.69108 10.7097 7.06593 11.306 8.5 11.3077ZM8.5 1.61539C9.26415 1.61539 10.0111 1.85224 10.6465 2.29599C11.2819 2.73974 11.7771 3.37046 12.0695 4.1084C12.3619 4.84633 12.4385 5.65833 12.2894 6.44171C12.1403 7.2251 11.7723 7.94468 11.232 8.50947C10.6917 9.07426 10.0032 9.45889 9.25375 9.61471C8.50428 9.77054 7.72744 9.69056 7.02146 9.3849C6.31547 9.07924 5.71206 8.56162 5.28752 7.8975C4.86298 7.23338 4.63638 6.45258 4.63638 5.65385C4.63759 4.58317 5.04503 3.5567 5.76934 2.79962C6.49365 2.04253 7.47567 1.61665 8.5 1.61539Z" fill="#334266"/>
</svg>
