<svg width="22" height="22" viewBox="0 0 22 22" fill="none" xmlns="http://www.w3.org/2000/svg">
<path d="M7.83268 11.8333L10.3327 14.3333L14.4993 8.5M21.166 11C21.166 12.3132 20.9074 13.6136 20.4048 14.8268C19.9023 16.0401 19.1657 17.1425 18.2371 18.0711C17.3085 18.9997 16.2061 19.7363 14.9929 20.2388C13.7796 20.7413 12.4792 21 11.166 21C9.8528 21 8.55244 20.7413 7.33918 20.2388C6.12593 19.7363 5.02353 18.9997 4.09495 18.0711C3.16636 17.1425 2.42977 16.0401 1.92722 14.8268C1.42467 13.6136 1.16602 12.3132 1.16602 11C1.16602 8.34784 2.21958 5.8043 4.09495 3.92893C5.97031 2.05357 8.51385 1 11.166 1C13.8182 1 16.3617 2.05357 18.2371 3.92893C20.1124 5.8043 21.166 8.34784 21.166 11Z" stroke="#AECF6D" stroke-linecap="round" stroke-linejoin="round"/>
</svg>
