<svg width="25" height="24" viewBox="0 0 25 24" fill="none" xmlns="http://www.w3.org/2000/svg">
<path d="M6.79461 5.28955C6.22471 5.87252 5.74026 6.47765 5.32977 7.18433C4.80494 8.06895 4.45141 9.04005 4.24025 10.0465L3.35003 8.85974C3.10174 8.52832 2.63153 8.46057 2.30047 8.70996C1.96869 8.95825 1.9013 9.42847 2.15033 9.75989L4.16742 12.4493C4.42801 12.7612 4.87773 12.848 5.21698 12.5991L7.90643 10.582C8.23822 10.3337 8.3056 9.86353 8.05658 9.5321C7.80755 9.20105 7.33807 9.13293 7.00702 9.38232L5.70408 10.3594C5.8817 9.51077 6.1797 8.6917 6.62323 7.94385C9.17098 3.48778 15.578 2.67594 19.1608 6.3501C22.2758 9.46509 22.2758 14.5334 19.1616 17.6477C16.0429 20.7583 10.9709 20.7579 7.85516 17.6481C7.33441 17.1277 6.88983 16.5381 6.53387 15.8954C6.33319 15.5328 5.87542 15.4014 5.51434 15.6031C5.15179 15.8038 5.02069 16.2601 5.22137 16.6227C5.64544 17.3877 6.17498 18.0897 6.79535 18.7097C8.64618 20.5562 11.0764 21.4794 13.508 21.4794C15.9389 21.4794 18.3705 20.5558 20.2214 18.709C22.0136 16.9171 23.0002 14.5342 23.0002 11.9993C23.0002 9.46436 22.0136 7.08142 20.2206 5.28882C16.5197 1.59705 10.497 1.59558 6.79461 5.28955Z" fill="#091D37"/>
<path d="M13.2344 7.72266C12.8198 7.72266 12.4844 8.05847 12.4844 8.47266V10.5967C12.4844 11.2017 12.7209 11.7697 13.1516 12.1952C13.5764 12.6156 14.1375 12.8463 14.7336 12.8463H14.7571L16.8804 12.8247C17.2949 12.8203 17.6274 12.4812 17.623 12.067C17.6187 11.6554 17.2839 11.3247 16.873 11.3247C16.8708 11.3247 16.8679 11.3247 16.8657 11.3247L14.7424 11.3463C14.5461 11.3423 14.3506 11.2712 14.2063 11.1292C14.0635 10.9874 13.9844 10.7981 13.9844 10.5967V8.47266C13.9844 8.05847 13.6489 7.72266 13.2344 7.72266Z" fill="#091D37"/>
</svg>
