<svg width="25" height="24" viewBox="0 0 25 24" fill="none" xmlns="http://www.w3.org/2000/svg">
<path d="M16.25 10.5L20.97 5.78C21.0749 5.67524 21.2085 5.60392 21.3539 5.57503C21.4993 5.54615 21.65 5.561 21.7869 5.61771C21.9239 5.67442 22.041 5.77045 22.1234 5.89367C22.2058 6.01688 22.2499 6.16176 22.25 6.31V17.69C22.2499 17.8382 22.2058 17.9831 22.1234 18.1063C22.041 18.2295 21.9239 18.3256 21.7869 18.3823C21.65 18.439 21.4993 18.4538 21.3539 18.425C21.2085 18.3961 21.0749 18.3248 20.97 18.22L16.25 13.5M5 18.75H14C14.5967 18.75 15.169 18.5129 15.591 18.091C16.0129 17.669 16.25 17.0967 16.25 16.5V7.5C16.25 6.90326 16.0129 6.33097 15.591 5.90901C15.169 5.48705 14.5967 5.25 14 5.25H5C4.40326 5.25 3.83097 5.48705 3.40901 5.90901C2.98705 6.33097 2.75 6.90326 2.75 7.5V16.5C2.75 17.0967 2.98705 17.669 3.40901 18.091C3.83097 18.5129 4.40326 18.75 5 18.75Z" stroke="#091D37" stroke-linecap="round"/>
</svg>
