<svg width="19" height="12" viewBox="0 0 19 12" fill="none" xmlns="http://www.w3.org/2000/svg">
<path d="M17.9375 1.125C18.2812 1.3125 18.5 1.625 18.5 2V10C18.5 10.375 18.2812 10.7188 17.9375 10.9062C17.8125 10.9688 17.6562 11 17.5 11C17.2812 11 17.0938 10.9688 16.9062 10.8438L13.6875 8.59375C13.4688 8.4375 13.4062 8.125 13.5625 7.875C13.7188 7.65625 14.0312 7.59375 14.2812 7.75L17.5 10V2L14.2812 4.25C14.0312 4.40625 13.7188 4.375 13.5625 4.15625C13.4062 3.90625 13.4688 3.59375 13.6875 3.4375L16.9062 1.1875C17.2188 0.96875 17.625 0.96875 17.9375 1.125ZM10.5 0C11.5938 0 12.5 0.90625 12.5 2V10C12.5 11.125 11.5938 12 10.5 12H2.5C1.375 12 0.5 11.125 0.5 10V2C0.5 0.90625 1.375 0 2.5 0H10.5ZM11.5 10V2C11.5 1.46875 11.0312 1 10.5 1H2.5C1.9375 1 1.5 1.46875 1.5 2V10C1.5 10.5625 1.9375 11 2.5 11H10.5C11.0312 11 11.5 10.5625 11.5 10Z" fill="#091D37"/>
</svg>
