<svg width="21" height="19" viewBox="0 0 21 19" fill="none" xmlns="http://www.w3.org/2000/svg">
<path d="M19.9844 1.0625C20.6094 2.50781 21 4.26562 21 5.98438C21 10.9844 18.2266 15.1641 14.125 16.5312C13.3438 16.8438 12.4844 17 11.625 17C8.89062 17 6.50781 15.4375 5.41406 13.0938C3.38281 15.1641 2.875 17.3516 2.83594 17.5078C2.75781 17.9766 2.36719 18.25 1.9375 18.25C1.85938 18.25 1.78125 18.25 1.74219 18.25C1.23438 18.1328 0.882812 17.6641 1 17.1562C1 17.1172 1.70312 13.875 4.82812 11.1406C4.75 10.8281 4.75 10.4766 4.75 10.1641C4.75 6.33594 7.79688 3.25 11.625 3.25C12.1328 3.25 12.6797 3.32812 13.1875 3.44531C13.6172 3.5625 14.0469 3.60156 14.4766 3.60156C16.2734 3.60156 18.0312 2.74219 19.0078 1.0625C19.125 0.867188 19.3203 0.75 19.4766 0.75C19.6719 0.75 19.8672 0.867188 19.9844 1.0625ZM13.5391 14.7344C16.8594 13.6406 19.125 10.125 19.125 5.98438C19.125 5.32031 19.0469 4.61719 18.8906 3.95312C17.6406 4.89062 16.1172 5.4375 14.4375 5.4375C13.8516 5.4375 13.2656 5.35938 12.7188 5.24219C12.3672 5.16406 11.9766 5.125 11.5859 5.125C8.92969 5.125 6.74219 7.19531 6.58594 9.8125C8.38281 8.71875 10.6484 7.89844 13.6562 7.625C14.1641 7.58594 14.6328 7.9375 14.6719 8.44531C14.75 8.99219 14.3594 9.42188 13.8516 9.5C10.7656 9.77344 8.53906 10.7109 6.9375 11.8047C7.64062 13.7188 9.4375 15.125 11.5859 15.125C12.2109 15.125 12.8359 15.0078 13.4219 14.7734L13.5 14.7344H13.5391Z" fill="#334266"/>
</svg>
